<svg id="Icons" height="512" viewBox="0 0 74 74" width="512" xmlns="http://www.w3.org/2000/svg"><path d="m58.06 53.474a1 1 0 0 1 -.7-1.72q.358-.346.714-.723l1.606-1.766a1 1 0 1 1 1.479 1.345l-1.617 1.779c-.271.288-.531.551-.793.8a1 1 0 0 1 -.689.285z"/><path d="m7.641 66.668a3.518 3.518 0 0 1 -1.485-.332 3.605 3.605 0 0 1 -1.891-2.12c-1.947-5.835-2.781-9.916-1.936-16.051a3.6 3.6 0 0 1 .7-1.672l.761-1.009c3.346-4.45 6.5-8.652 11.693-9.07a33.088 33.088 0 0 1 7.717.286 23.922 23.922 0 0 1 4.828 1.31 8.544 8.544 0 0 0 3.692.443 9.894 9.894 0 0 0 3.58-1.137 58.916 58.916 0 0 1 12.166-4.786 4.466 4.466 0 0 1 5.021 2.111 4.122 4.122 0 0 1 .477 1.251 4.471 4.471 0 0 1 -2.259 4.88l-14.128 7.559a.23.23 0 0 0 -.13.288c.047.191.238.209.438.21a28.574 28.574 0 0 0 14.981-4.038 26.534 26.534 0 0 0 9.823-11.006c4-7.99 7.49-8.345 7.875-8.359a2.154 2.154 0 0 1 1.575.513 2.676 2.676 0 0 1 .824 1.768 22.492 22.492 0 0 1 -2.069 10.025 36.132 36.132 0 0 1 -3.405 6.329 1 1 0 0 1 -1.66-1.115 34.166 34.166 0 0 0 3.217-5.979 20.574 20.574 0 0 0 1.921-9.127c-.038-.435-.222-.421-.3-.417-.023 0-2.765.4-6.193 7.256a28.535 28.535 0 0 1 -10.574 11.821 30.344 30.344 0 0 1 -16.192 4.326 2.266 2.266 0 0 1 -1.074-4.262l14.128-7.559a2.471 2.471 0 0 0 1.246-2.7 2.16 2.16 0 0 0 -.253-.665 2.47 2.47 0 0 0 -2.776-1.179 56.874 56.874 0 0 0 -11.749 4.625 11.892 11.892 0 0 1 -4.33 1.356 10.541 10.541 0 0 1 -4.56-.558 22.184 22.184 0 0 0 -4.406-1.206 31.565 31.565 0 0 0 -7.285-.271c-4.293.346-7.058 4.022-10.258 8.279l-.77 1.014a1.612 1.612 0 0 0 -.311.737c-.791 5.74 0 9.6 1.852 15.145a1.571 1.571 0 0 0 .838.94 1.508 1.508 0 0 0 1.2.037c4.165-1.66 13.111-4.03 26.221-1.264a12.865 12.865 0 0 0 7-.53c.224-.079.361-.127.5-.19a1 1 0 1 1 .846 1.813c-.2.091-.392.162-.579.229a14.963 14.963 0 0 1 -8.178.635c-12.597-2.652-21.11-.411-25.07 1.165a3.517 3.517 0 0 1 -1.299.251z"/><path d="m49.416 60.743a1 1 0 0 1 -.558-1.831c.82-.549 1.672-1.169 2.606-1.9a1 1 0 1 1 1.228 1.578c-.971.756-1.861 1.4-2.72 1.979a.994.994 0 0 1 -.556.174z"/><path d="m52 27.459a1 1 0 0 1 -.986-1.169l.56-3.266-2.373-2.313a1 1 0 0 1 .555-1.706l3.279-.476 1.466-2.971a1.041 1.041 0 0 1 1.794 0l1.466 2.971 3.279.476a1 1 0 0 1 .555 1.706l-2.373 2.313.56 3.266a1 1 0 0 1 -1.451 1.054l-2.931-1.544-2.933 1.542a1 1 0 0 1 -.467.117zm3.4-3.787a.991.991 0 0 1 .465.115l1.605.844-.306-1.787a1 1 0 0 1 .287-.885l1.3-1.266-1.793-.26a1 1 0 0 1 -.754-.547l-.8-1.626-.8 1.626a1 1 0 0 1 -.754.547l-1.794.26 1.3 1.266a1 1 0 0 1 .288.885l-.307 1.787 1.6-.844a.991.991 0 0 1 .463-.115z"/><path d="m44.915 24.459a1 1 0 0 1 -.466-.115l-4.449-2.339-4.449 2.339a1 1 0 0 1 -1.451-1.054l.849-4.954-3.6-3.508a1 1 0 0 1 .554-1.706l4.974-.724 2.223-4.507a1.04 1.04 0 0 1 1.792 0l2.23 4.509 4.974.724a1 1 0 0 1 .554 1.706l-3.6 3.508.85 4.952a1 1 0 0 1 -.985 1.169zm-4.915-4.584a1 1 0 0 1 .465.115l3.121 1.641-.6-3.475a1 1 0 0 1 .288-.885l2.526-2.461-3.49-.508a1 1 0 0 1 -.752-.547l-1.558-3.162-1.561 3.162a1 1 0 0 1 -.752.547l-3.49.508 2.525 2.461a1 1 0 0 1 .288.885l-.6 3.475 3.121-1.641a1 1 0 0 1 .469-.115z"/><path d="m28 27.459a1 1 0 0 1 -.465-.115l-2.935-1.544-2.933 1.542a1 1 0 0 1 -1.451-1.054l.56-3.266-2.376-2.311a1 1 0 0 1 .555-1.706l3.279-.476 1.466-2.971a1.041 1.041 0 0 1 1.794 0l1.466 2.971 3.279.476a1 1 0 0 1 .555 1.706l-2.373 2.313.56 3.266a1 1 0 0 1 -.981 1.169zm-6.747-6.766 1.3 1.266a1 1 0 0 1 .287.885l-.306 1.787 1.605-.844a1 1 0 0 1 .93 0l1.605.844-.307-1.787a1 1 0 0 1 .288-.885l1.3-1.266-1.794-.26a1 1 0 0 1 -.754-.547l-.8-1.626-.8 1.626a1 1 0 0 1 -.754.547z"/></svg>