<svg id="Icons" height="512" viewBox="0 0 74 74" width="512" xmlns="http://www.w3.org/2000/svg"><path d="m8.51 27.56h-2v-21.47a4.094 4.094 0 0 1 4.09-4.09h30.91a4.094 4.094 0 0 1 4.09 4.09v13.68h-2v-13.68a2.092 2.092 0 0 0 -2.09-2.09h-30.91a2.092 2.092 0 0 0 -2.09 2.09z"/><path d="m6.51 44.47h2v2.97h-2z"/><path d="m41.51 72h-30.91a4.094 4.094 0 0 1 -4.09-4.09v-13.47h2v13.47a2.092 2.092 0 0 0 2.09 2.09h30.91a2.092 2.092 0 0 0 2.09-2.09v-40.49h2v40.49a4.094 4.094 0 0 1 -4.09 4.09z"/><path d="m6.51 34.56h2v2.91h-2z"/><path d="m26.053 33.858a10.263 10.263 0 1 1 9.347-14.498l-1.821.827a8.263 8.263 0 1 0 0 6.819l1.822.824a10.273 10.273 0 0 1 -9.348 6.028z"/><path d="m62.67 28.42h-33.825a4.823 4.823 0 0 1 0-9.646h33.825a4.823 4.823 0 0 1 0 9.646zm-33.825-7.646a2.823 2.823 0 0 0 0 5.646h33.825a2.823 2.823 0 0 0 0-5.646z"/><path d="m27.968 61.706h-3.83a2.2 2.2 0 0 1 -2.194-2.2v-3.506a7.05 7.05 0 0 1 2.591-12.63 7.074 7.074 0 0 1 8.585 6.907 6.99 6.99 0 0 1 -2.958 5.723v3.509a2.2 2.2 0 0 1 -2.194 2.197zm-1.929-16.491a5.3 5.3 0 0 0 -1.094.114 5.052 5.052 0 0 0 -1.486 9.277l.485.291v4.614a.2.2 0 0 0 .194.2h3.83a.2.2 0 0 0 .194-.2v-4.611l.485-.291a5.051 5.051 0 0 0 -2.608-9.391z"/></svg>