<?xml version="1.0" encoding="UTF-8"?>
<svg xmlns="http://www.w3.org/2000/svg" viewBox="0 0 74 74" width="512" height="512"><g id="line_icons" data-name="line icons"><path d="M37,72C26,72,17.05,56.3,17.05,37S26,2,37,2,56.95,17.7,56.95,37a59.836,59.836,0,0,1-.539,8.106,1,1,0,1,1-1.982-.272A57.777,57.777,0,0,0,54.95,37C54.95,18.8,46.9,4,37,4S19.05,18.8,19.05,37,27.1,70,37,70c3.021,0,6.014-1.431,8.654-4.138a1,1,0,1,1,1.432,1.4C44.061,70.36,40.573,72,37,72Z"/><path d="M37,72a1,1,0,0,1-1-1V3a1,1,0,0,1,2,0V71A1,1,0,0,1,37,72Z"/><path d="M43.56,55.66H8.18a1,1,0,0,1,0-2H43.56a1,1,0,0,1,0,2Z"/><path d="M71,38H3a1,1,0,0,1,0-2H71a1,1,0,0,1,0,2Z"/><path d="M65.825,20.335H8.175a1,1,0,0,1,0-2h57.65a1,1,0,0,1,0,2Z"/><path d="M37,72A35,35,0,1,1,72,37a34.674,34.674,0,0,1-3.47,15.215,1,1,0,0,1-1.8-.87A32.7,32.7,0,0,0,70,37,32.978,32.978,0,1,0,48.618,67.894a1,1,0,1,1,.7,1.872A34.848,34.848,0,0,1,37,72Z"/><path d="M64.682,56.1a.994.994,0,0,1-.71-.3,11.062,11.062,0,0,0-15.626-.076A1,1,0,1,1,46.939,54.3a13.064,13.064,0,0,1,18.454.09,1,1,0,0,1-.711,1.7Z"/><path d="M61.44,59.308a1,1,0,0,1-.711-.3,6.493,6.493,0,0,0-9.172-.045,1,1,0,0,1-1.408-1.421,8.428,8.428,0,0,1,5.97-2.453h.043A8.427,8.427,0,0,1,62.15,57.6a1,1,0,0,1-.71,1.7Z"/><path d="M56.146,65.368a2.893,2.893,0,1,1,2.893-2.892A2.9,2.9,0,0,1,56.146,65.368Zm0-3.785a.893.893,0,1,0,.893.893A.893.893,0,0,0,56.146,61.583Z"/><path d="M56.162,72A14.029,14.029,0,1,1,70.19,57.972,14.044,14.044,0,0,1,56.162,72Zm0-26.057A12.029,12.029,0,1,0,68.19,57.972,12.042,12.042,0,0,0,56.162,45.943Z"/></g></svg>
