<svg height="512" viewBox="0 0 74 74" width="512" xmlns="http://www.w3.org/2000/svg"><g id="Icons"><path d="m67 59h-60a5.006 5.006 0 0 1 -5-5v-44a5.006 5.006 0 0 1 5-5h60a5.006 5.006 0 0 1 5 5v44a5.006 5.006 0 0 1 -5 5zm-60-52a3 3 0 0 0 -3 3v44a3 3 0 0 0 3 3h60a3 3 0 0 0 3-3v-44a3 3 0 0 0 -3-3z"/><path d="m52 69h-30a1 1 0 0 1 -1-1c0-5 5.269-5 7-5h18c1.731 0 7 0 7 5a1 1 0 0 1 -1 1zm-28.879-2h27.758c-.349-1.231-1.556-2-4.879-2h-18c-3.323 0-4.53.769-4.879 2z"/><path d="m45 58h2v6h-2z"/><path d="m27 58h2v6h-2z"/><path d="m3 49h68v2h-68z"/><path d="m33 53h9.125v2h-9.125z"/><path d="m22 18h2v20h-2z"/><path d="m32 18h2v20h-2z"/><path d="m23 27h10v2h-10z"/><path d="m42 38h-3a1 1 0 0 1 -1-1v-18a1 1 0 0 1 1-1h3a10 10 0 0 1 0 20zm-2-2h2a8 8 0 0 0 0-16h-2z"/></g></svg>