<svg id="Icons" height="512" viewBox="0 0 74 74" width="512" xmlns="http://www.w3.org/2000/svg"><path d="m6.056 63.838h-2.556a1.505 1.505 0 0 1 -1.5-1.5v-23.438a1.505 1.505 0 0 1 1.5-1.5h2.556a4.06 4.06 0 0 1 4.055 4.055v18.328a4.06 4.06 0 0 1 -4.055 4.055zm-2.056-2h2.056a2.057 2.057 0 0 0 2.055-2.055v-18.333a2.057 2.057 0 0 0 -2.055-2.05h-2.056z"/><path d="m13.652 58.576h-4.541a1 1 0 0 1 -1-1v-13.919a1 1 0 0 1 1-1h4.541a1 1 0 0 1 1 1v13.919a1 1 0 0 1 -1 1zm-3.541-2h2.541v-11.919h-2.541z"/><path d="m25.407 51.616h-11.754a1 1 0 0 1 0-2h11.183l6.2-10.488a1 1 0 0 1 1.722 1.018l-6.49 10.979a1 1 0 0 1 -.861.491z"/><path d="m60.064 35.283a.991.991 0 0 1 -.352-.065l-39.446-14.84a1 1 0 0 1 .7-1.872l39.447 14.84a1 1 0 0 1 -.353 1.937z"/><path d="m49.68 21.26a1 1 0 0 1 -.354-.065l-2.72-1.03a1 1 0 0 1 .708-1.87l2.72 1.03a1 1 0 0 1 -.354 1.935z"/><path d="m55.713 43.644a2.766 2.766 0 0 1 -.973-.178l-24.2-9.106a.608.608 0 0 1 -.072-.024l-3.69-1.379a1.047 1.047 0 0 1 -.127-.058l-7.815-2.933a3.047 3.047 0 0 1 -1.773-3.922l5.237-13.917a3 3 0 0 1 1.586-1.693 3.034 3.034 0 0 1 2.318-.081l5.224 1.961a1 1 0 0 1 -.7 1.872l-5.221-1.96a1.039 1.039 0 0 0 -.793.03 1.009 1.009 0 0 0 -.537.572l-5.241 13.924a1.042 1.042 0 0 0 .61 1.343l7.934 2.978a.9.9 0 0 1 .126.058l3.5 1.307q.042.012.081.027l24.257 9.129a.758.758 0 0 0 .575-.016.739.739 0 0 0 .386-.418l2.721-7.232a1 1 0 0 1 .455-.525l9.032-4.954-12.735-4.793a1 1 0 0 1 .7-1.872l14.77 5.56a1 1 0 0 1 .129 1.813l-10.611 5.822-2.59 6.883a2.736 2.736 0 0 1 -2.563 1.782z"/><path d="m40.41 17.771a.992.992 0 0 1 -.353-.065l-2.78-1.05a1 1 0 1 1 .706-1.871l2.78 1.049a1 1 0 0 1 -.353 1.937z"/><path d="m35.914 42.036a2.685 2.685 0 0 1 -.948-.174l-8.528-3.208a2.693 2.693 0 0 1 -1.569-3.464l1.331-3.528a1 1 0 0 1 1.288-.584l11.688 4.4a1 1 0 0 1 .584 1.288l-1.327 3.528a2.7 2.7 0 0 1 -2.515 1.744zm-8.2-8.734-.973 2.598a.69.69 0 0 0 .4.887l8.529 3.203a.686.686 0 0 0 .887-.4l.975-2.59z"/><path d="m62.236 41.041a2.515 2.515 0 0 1 -.923-.176l-3.254-1.286a1 1 0 0 1 .735-1.86l3.254 1.281a.528.528 0 0 0 .683-.293l3.507-8.706a1 1 0 0 1 1.855.747l-3.507 8.706a2.535 2.535 0 0 1 -2.35 1.587z"/></svg>