<svg id="Icons" height="512" viewBox="0 0 74 74" width="512" xmlns="http://www.w3.org/2000/svg"><path d="m71 69.5h-68a1 1 0 0 1 -1-1v-63a1 1 0 0 1 1-1h68a1 1 0 0 1 1 1v63a1 1 0 0 1 -1 1zm-67-2h66v-61h-66z"/><path d="m54.5 69.5h-41a1 1 0 0 1 -1-1v-48a1 1 0 0 1 1-1h41a1 1 0 0 1 1 1v48a1 1 0 0 1 -1 1zm-40-2h39v-46h-39z"/><path d="m34 36.56a1 1 0 0 1 -1-1v-15.06a1 1 0 0 1 2 0v15.06a1 1 0 0 1 -1 1z"/><path d="m34 56.44a1 1 0 0 1 -1-1v-2.97a1 1 0 0 1 2 0v2.97a1 1 0 0 1 -1 1z"/><path d="m34 69.5a1 1 0 0 1 -1-1v-6.06a1 1 0 0 1 2 0v6.06a1 1 0 0 1 -1 1z"/><path d="m34 46.47a1 1 0 0 1 -1-1v-2.91a1 1 0 0 1 2 0v2.91a1 1 0 0 1 -1 1z"/><path d="m47.375 15.5h-.775a1 1 0 0 1 0-2h.777a1 1 0 0 1 0 2z"/><path d="m40.882 15.5h-.782a1 1 0 0 1 0-2h.778a1 1 0 0 1 0 2z"/><path d="m34.389 15.5h-.778a1 1 0 0 1 0-2h.778a1 1 0 0 1 0 2z"/><path d="m27.9 15.5h-.778a1 1 0 1 1 0-2h.778a1 1 0 0 1 0 2z"/><path d="m21.4 15.5h-.777a1 1 0 0 1 0-2h.777a1 1 0 0 1 0 2z"/><path d="m65.152 45.417h-5.652a1 1 0 0 1 -1-1v-10.417a1 1 0 0 1 1-1h5.651a1 1 0 0 1 1 1v10.417a1 1 0 0 1 -.999 1zm-4.651-2h3.651v-8.417h-3.652z"/><path d="m65.156 40.21h-5.656a1 1 0 0 1 0-2h5.652a1 1 0 0 1 0 2z"/></svg>