<svg id="Icons" height="512" viewBox="0 0 74 74" width="512" xmlns="http://www.w3.org/2000/svg"><path d="m59.667 60.667h-18.443a1 1 0 0 1 -.64-1.769 5.4 5.4 0 1 0 -6.912 0 1 1 0 0 1 -.64 1.769h-18.7a1 1 0 0 1 -1-1v-16.392a7.4 7.4 0 1 1 0-12.562v-16.38a1 1 0 0 1 1-1h18.7a1 1 0 0 1 .64 1.769 5.4 5.4 0 1 0 6.912 0 1 1 0 0 1 .64-1.769h18.443a1 1 0 0 1 1 1v16.392a7.4 7.4 0 1 1 0 12.562v16.38a1 1 0 0 1 -1 1zm-16.257-2h15.257v-17.567a1 1 0 0 1 1.769-.64 5.4 5.4 0 1 0 0-6.912 1 1 0 0 1 -1.769-.64v-17.575h-15.257a7.4 7.4 0 1 1 -12.562 0h-15.515v17.567a1 1 0 0 1 -1.769.64 5.4 5.4 0 1 0 0 6.912 1 1 0 0 1 1.769.64v17.575h15.515a7.4 7.4 0 1 1 12.562 0z"/></svg>