<?xml version="1.0" encoding="UTF-8"?>
<svg xmlns="http://www.w3.org/2000/svg" viewBox="0 0 74 74" width="512" height="512"><g id="Numbers"><text transform="translate(26.989 -389.877)" font-size="18" fill="red" font-family="ArialMT, Arial">10<tspan x="0" y="124">20</tspan><tspan x="0" y="248">30</tspan><tspan x="0" y="372">40</tspan><tspan x="0" y="496">50</tspan><tspan x="0" y="620">60</tspan><tspan x="0" y="744">70</tspan><tspan x="0" y="868">80</tspan><tspan x="0" y="992">90</tspan><tspan x="-5.005" y="1116">100</tspan><tspan x="-4.337" y="1240" letter-spacing="-0.074em">1</tspan><tspan x="4.337" y="1240">10</tspan><tspan x="-5.005" y="1364">120</tspan><tspan x="-5.005" y="1488">130</tspan><tspan x="-5.005" y="1612">140</tspan><tspan x="-5.005" y="1736">150</tspan><tspan x="-5.005" y="1860">160</tspan><tspan x="-5.005" y="1984">170</tspan><tspan x="-5.005" y="2108">180</tspan><tspan x="-5.005" y="2232">190</tspan><tspan x="-5.005" y="2356">200</tspan><tspan x="-5.005" y="2480">210</tspan><tspan x="-5.005" y="2604">220</tspan><tspan x="-5.005" y="2728">230</tspan><tspan x="-5.005" y="2852">240</tspan><tspan x="-5.005" y="2976">250</tspan><tspan x="-5.005" y="3100">260</tspan><tspan x="-5.005" y="3224">270</tspan><tspan x="-5.005" y="3348">280</tspan><tspan x="-5.005" y="3472">290</tspan><tspan x="-5.005" y="3596">300</tspan></text></g><g id="Icons"><path d="M63,25H11a1,1,0,0,1-.884-1.468l6-11.338A1,1,0,0,1,17,11.662H57a1,1,0,0,1,.884.532l6,11.338A1,1,0,0,1,63,25ZM12.66,23H61.34L56.4,13.662H17.6Z"/><path d="M56.5,32.5A7.508,7.508,0,0,1,49,25V24a1,1,0,0,1,1-1H63a1,1,0,0,1,1,1v1A7.508,7.508,0,0,1,56.5,32.5ZM51,25a5.5,5.5,0,0,0,11,0Z"/><path d="M43.5,32.5A7.508,7.508,0,0,1,36,25V24a1,1,0,0,1,1-1H50a1,1,0,0,1,1,1v1A7.508,7.508,0,0,1,43.5,32.5ZM38,25a5.5,5.5,0,0,0,11,0Z"/><path d="M30.5,32.5A7.508,7.508,0,0,1,23,25V24a1,1,0,0,1,1-1H37a1,1,0,0,1,1,1v1A7.508,7.508,0,0,1,30.5,32.5ZM25,25a5.5,5.5,0,0,0,11,0Z"/><path d="M17.5,32.5A7.508,7.508,0,0,1,10,25V24a1,1,0,0,1,1-1H24a1,1,0,0,1,1,1v1A7.508,7.508,0,0,1,17.5,32.5ZM12,25a5.5,5.5,0,0,0,11,0Z"/><path d="M57,13.66a1,1,0,0,1-1-1V6a2,2,0,0,0-2-2H20a2,2,0,0,0-2,2v6.66a1,1,0,0,1-2,0V6a4,4,0,0,1,4-4H54a4,4,0,0,1,4,4v6.66A1,1,0,0,1,57,13.66Z"/><path d="M57,37.55a1,1,0,0,1-1-1V31.48a1,1,0,0,1,2,0v5.07A1,1,0,0,1,57,37.55Z"/><path d="M54,72H20a4,4,0,0,1-4-4V31.48a1,1,0,0,1,2,0V68a2,2,0,0,0,2,2H54a2,2,0,0,0,2-2V53.45a1,1,0,0,1,2,0V68A4,4,0,0,1,54,72Z"/><path d="M57,47.45a1,1,0,0,1-1-1v-2.9a1,1,0,0,1,2,0v2.9A1,1,0,0,1,57,47.45Z"/><path d="M57,13.662H17a1,1,0,0,1,0-2H57a1,1,0,0,1,0,2Z"/><path d="M57,59H17a1,1,0,0,1,0-2H57a1,1,0,0,1,0,2Z"/><path d="M41.625,8.831H32.374a1,1,0,1,1,0-2h9.251a1,1,0,1,1,0,2Z"/><path d="M39.827,67.453H34.173a3.313,3.313,0,1,1,0-6.626h5.654a3.313,3.313,0,1,1,0,6.626Zm-5.654-4.626a1.313,1.313,0,1,0,0,2.626h5.654a1.313,1.313,0,1,0,0-2.626Z"/></g></svg>
