<svg id="Icons" height="512" viewBox="0 0 74 74" width="512" xmlns="http://www.w3.org/2000/svg"><path d="m55.792 72h-37.584a4.213 4.213 0 0 1 -4.208-4.208v-61.584a4.213 4.213 0 0 1 4.208-4.208h37.584a4.213 4.213 0 0 1 4.208 4.208v61.584a4.213 4.213 0 0 1 -4.208 4.208zm-37.584-68a2.21 2.21 0 0 0 -2.208 2.208v61.584a2.21 2.21 0 0 0 2.208 2.208h37.584a2.21 2.21 0 0 0 2.208-2.208v-61.584a2.21 2.21 0 0 0 -2.208-2.208z"/><path d="m37 64.25a1 1 0 0 1 -1-1v-52.5a1 1 0 0 1 2 0v52.5a1 1 0 0 1 -1 1z"/><path d="m46.232 20.518a3.473 3.473 0 0 1 -2.474-1.025 3.5 3.5 0 0 1 0-4.951l3.535-3.535a3.585 3.585 0 0 1 4.949 0 3.5 3.5 0 0 1 0 4.951l-3.535 3.535a3.477 3.477 0 0 1 -2.475 1.025zm3.536-8.536a1.488 1.488 0 0 0 -1.061.44l-3.535 3.535a1.5 1.5 0 0 0 0 2.122 1.535 1.535 0 0 0 2.121 0l3.535-3.535a1.5 1.5 0 0 0 -1.06-2.561z"/><path d="m49.768 18.018a1 1 0 0 1 -.707-.293l-3.536-3.536a1 1 0 1 1 1.414-1.414l3.536 3.536a1 1 0 0 1 -.707 1.707z"/><path d="m46.232 35.018a3.473 3.473 0 0 1 -2.474-1.025 3.5 3.5 0 0 1 0-4.951l3.535-3.535a3.586 3.586 0 0 1 4.949 0 3.5 3.5 0 0 1 0 4.951l-3.535 3.535a3.477 3.477 0 0 1 -2.475 1.025zm3.536-8.536a1.488 1.488 0 0 0 -1.061.44l-3.535 3.535a1.5 1.5 0 0 0 0 2.122 1.536 1.536 0 0 0 2.121 0l3.535-3.535a1.5 1.5 0 0 0 -1.06-2.561z"/><path d="m49.768 32.518a1 1 0 0 1 -.707-.293l-3.536-3.536a1 1 0 0 1 1.414-1.414l3.536 3.536a1 1 0 0 1 -.707 1.707z"/><path d="m46.232 49.518a3.473 3.473 0 0 1 -2.474-1.025 3.5 3.5 0 0 1 0-4.951l3.535-3.535a3.585 3.585 0 0 1 4.949 0 3.5 3.5 0 0 1 0 4.951l-3.535 3.535a3.477 3.477 0 0 1 -2.475 1.025zm3.536-8.536a1.488 1.488 0 0 0 -1.061.44l-3.535 3.535a1.5 1.5 0 0 0 0 2.122 1.536 1.536 0 0 0 2.121 0l3.535-3.535a1.5 1.5 0 0 0 -1.06-2.561z"/><path d="m49.768 47.018a1 1 0 0 1 -.707-.293l-3.536-3.536a1 1 0 0 1 1.414-1.414l3.536 3.536a1 1 0 0 1 -.707 1.707z"/><path d="m46.232 64.018a3.473 3.473 0 0 1 -2.474-1.025 3.5 3.5 0 0 1 0-4.951l3.535-3.535a3.586 3.586 0 0 1 4.949 0 3.5 3.5 0 0 1 0 4.951l-3.535 3.535a3.477 3.477 0 0 1 -2.475 1.025zm3.536-8.536a1.488 1.488 0 0 0 -1.061.44l-3.535 3.535a1.5 1.5 0 0 0 0 2.122 1.536 1.536 0 0 0 2.121 0l3.535-3.535a1.5 1.5 0 0 0 -1.06-2.561z"/><path d="m49.768 61.518a1 1 0 0 1 -.707-.293l-3.536-3.536a1 1 0 0 1 1.414-1.414l3.536 3.536a1 1 0 0 1 -.707 1.707z"/><path d="m24.232 20.518a3.473 3.473 0 0 1 -2.474-1.025 3.5 3.5 0 0 1 0-4.951l3.535-3.535a3.585 3.585 0 0 1 4.949 0 3.5 3.5 0 0 1 0 4.951l-3.535 3.535a3.477 3.477 0 0 1 -2.475 1.025zm3.536-8.536a1.488 1.488 0 0 0 -1.061.44l-3.535 3.535a1.5 1.5 0 0 0 0 2.122 1.535 1.535 0 0 0 2.121 0l3.535-3.535a1.5 1.5 0 0 0 -1.06-2.561z"/><path d="m27.768 18.018a1 1 0 0 1 -.707-.293l-3.536-3.536a1 1 0 1 1 1.414-1.414l3.536 3.536a1 1 0 0 1 -.707 1.707z"/><path d="m24.232 35.018a3.473 3.473 0 0 1 -2.474-1.025 3.5 3.5 0 0 1 0-4.951l3.535-3.535a3.586 3.586 0 0 1 4.949 0 3.5 3.5 0 0 1 0 4.951l-3.535 3.535a3.477 3.477 0 0 1 -2.475 1.025zm3.536-8.536a1.488 1.488 0 0 0 -1.061.44l-3.535 3.535a1.5 1.5 0 0 0 0 2.122 1.536 1.536 0 0 0 2.121 0l3.535-3.535a1.5 1.5 0 0 0 -1.06-2.561z"/><path d="m27.768 32.518a1 1 0 0 1 -.707-.293l-3.536-3.536a1 1 0 0 1 1.414-1.414l3.536 3.536a1 1 0 0 1 -.707 1.707z"/><path d="m24.232 49.518a3.473 3.473 0 0 1 -2.474-1.025 3.5 3.5 0 0 1 0-4.951l3.535-3.535a3.585 3.585 0 0 1 4.949 0 3.5 3.5 0 0 1 0 4.951l-3.535 3.535a3.477 3.477 0 0 1 -2.475 1.025zm3.536-8.536a1.488 1.488 0 0 0 -1.061.44l-3.535 3.535a1.5 1.5 0 0 0 0 2.122 1.536 1.536 0 0 0 2.121 0l3.535-3.535a1.5 1.5 0 0 0 -1.06-2.561z"/><path d="m27.768 47.018a1 1 0 0 1 -.707-.293l-3.536-3.536a1 1 0 0 1 1.414-1.414l3.536 3.536a1 1 0 0 1 -.707 1.707z"/><path d="m24.232 64.018a3.473 3.473 0 0 1 -2.474-1.025 3.5 3.5 0 0 1 0-4.951l3.535-3.535a3.586 3.586 0 0 1 4.949 0 3.5 3.5 0 0 1 0 4.951l-3.535 3.535a3.477 3.477 0 0 1 -2.475 1.025zm3.536-8.536a1.488 1.488 0 0 0 -1.061.44l-3.535 3.535a1.5 1.5 0 0 0 0 2.122 1.536 1.536 0 0 0 2.121 0l3.535-3.535a1.5 1.5 0 0 0 -1.06-2.561z"/><path d="m27.768 61.518a1 1 0 0 1 -.707-.293l-3.536-3.536a1 1 0 0 1 1.414-1.414l3.536 3.536a1 1 0 0 1 -.707 1.707z"/></svg>