<?xml version="1.0"?>
<svg xmlns="http://www.w3.org/2000/svg" id="line_icons" data-name="line icons" viewBox="0 0 74 74" width="512" height="512"><path d="M27.774,35.054c-7.739,0-13.563-11.521-13.563-18.992A13.835,13.835,0,0,1,27.774,2,13.835,13.835,0,0,1,41.337,16.062C41.337,23.532,35.513,35.054,27.774,35.054ZM27.774,4A11.834,11.834,0,0,0,16.21,16.062c0,6.555,5.292,16.992,11.563,16.992S39.337,22.617,39.337,16.062A11.834,11.834,0,0,0,27.774,4Z"/><path d="M36.4,17.062a1,1,0,0,1-1-1c0-.156,0-.311-.012-.465a1,1,0,1,1,2-.107q.015.284.015.573A1,1,0,0,1,36.4,17.062Z"/><path d="M35.424,13.247a1,1,0,0,1-.944-.671,7.862,7.862,0,0,0-4.456-4.5,1,1,0,0,1,.8-1.833,9.836,9.836,0,0,1,5.545,5.669,1,1,0,0,1-.944,1.33Z"/><path d="M32.319,38.511h-9.09a1,1,0,0,1-.873-1.488l2.174-3.886a1,1,0,0,1,1.745.977l-1.341,2.4H30.61l-1.347-2.4a1,1,0,0,1,1.743-.979l2.184,3.886a1,1,0,0,1-.872,1.49Z"/><path d="M26.3,61.058a1,1,0,0,1-.711-.3c-2.635-2.667-6.464-9.038-2.092-14.065,4.432-5.1,2.743-8.709,2.726-8.745a1,1,0,0,1,1.8-.88c.1.2,2.28,4.85-3.013,10.937-4.261,4.9,1.943,11.283,2.006,11.347a1,1,0,0,1-.711,1.7Z"/><path d="M46.227,45.991c-6.318,0-11.447-7.635-13.065-14.818a1,1,0,1,1,1.951-.439c1.436,6.376,6.094,13.258,11.114,13.258C52.5,43.991,57.79,33.554,57.79,27A11.829,11.829,0,0,0,46.227,14.945a11.247,11.247,0,0,0-5.428,1.41,1,1,0,1,1-.968-1.75,13.251,13.251,0,0,1,6.4-1.66A13.83,13.83,0,0,1,59.79,27C59.79,34.47,53.966,45.991,46.227,45.991Z"/><path d="M54.856,28a1,1,0,0,1-1-1c0-.156,0-.311-.012-.465a1,1,0,1,1,2-.107q.015.284.015.573A1,1,0,0,1,54.856,28Z"/><path d="M53.878,24.188a1,1,0,0,1-.944-.671,7.863,7.863,0,0,0-4.456-4.5,1,1,0,0,1,.8-1.833,9.835,9.835,0,0,1,5.545,5.669,1,1,0,0,1-.944,1.33Z"/><path d="M50.773,49.453h-9.09a1,1,0,0,1-.873-1.488l2.174-3.886a1,1,0,0,1,1.745.977l-1.341,2.4h5.676l-1.347-2.4a1,1,0,1,1,1.743-.979l2.184,3.886a1,1,0,0,1-.872,1.49Z"/><path d="M44.752,72a1,1,0,0,1-.711-.3c-2.635-2.667-6.465-9.038-2.092-14.066,4.432-5.1,2.743-8.708,2.726-8.744a1,1,0,1,1,1.8-.88c.1.2,2.28,4.85-3.013,10.937C39.2,63.85,45.4,70.233,45.464,70.3a1,1,0,0,1-.711,1.7Z"/></svg>
