<?xml version="1.0"?>
<svg xmlns="http://www.w3.org/2000/svg" id="Icons" viewBox="0 0 74 74" width="512" height="512"><path d="M71,72H3a1,1,0,0,1-1-1V3a1,1,0,0,1,1.707-.707l68,68A1,1,0,0,1,71,72ZM4,70H68.586L4,5.414Z"/><path d="M44.444,61H14a1,1,0,0,1-1-1V29.556a1,1,0,0,1,1.707-.707L45.151,59.293A1,1,0,0,1,44.444,61ZM15,59H42.03L15,31.97Z"/><path d="M13,72a1,1,0,0,1-1-1V68a1,1,0,0,1,2,0v3A1,1,0,0,1,13,72Z"/><path d="M21,72a1,1,0,0,1-1-1V66a1,1,0,0,1,2,0v5A1,1,0,0,1,21,72Z"/><path d="M29,72a1,1,0,0,1-1-1V68a1,1,0,0,1,2,0v3A1,1,0,0,1,29,72Z"/><path d="M37,72a1,1,0,0,1-1-1V66a1,1,0,0,1,2,0v5A1,1,0,0,1,37,72Z"/><path d="M45,72a1,1,0,0,1-1-1V68a1,1,0,0,1,2,0v3A1,1,0,0,1,45,72Z"/><path d="M53,72a1,1,0,0,1-1-1V66a1,1,0,0,1,2,0v5A1,1,0,0,1,53,72Z"/><path d="M6,62.75H3a1,1,0,0,1,0-2H6a1,1,0,0,1,0,2Z"/><path d="M8,54.75H3a1,1,0,0,1,0-2H8a1,1,0,0,1,0,2Z"/><path d="M6,46.75H3a1,1,0,0,1,0-2H6a1,1,0,0,1,0,2Z"/><path d="M8,38.75H3a1,1,0,0,1,0-2H8a1,1,0,0,1,0,2Z"/><path d="M6,30.75H3a1,1,0,0,1,0-2H6a1,1,0,0,1,0,2Z"/><path d="M8,22.75H3a1,1,0,0,1,0-2H8a1,1,0,0,1,0,2Z"/></svg>
