<svg height="512" viewBox="0 0 74 74" width="512" xmlns="http://www.w3.org/2000/svg"><g id="Numbers"><text fill="rgb(0,0,0)" font-family="ArialMT, Arial" font-size="18" transform="translate(31.995 -17.877)">5<tspan x="-5.005" y="124">15</tspan><tspan x="-5.005" y="248">25</tspan><tspan x="-5.005" y="372">35</tspan><tspan x="-5.005" y="496">45</tspan><tspan x="-5.005" y="620">55</tspan><tspan x="-5.005" y="744">65</tspan><tspan x="-5.005" y="868">75</tspan><tspan x="-5.005" y="992">85</tspan><tspan x="-5.005" y="1116">95</tspan><tspan x="-10.011" y="1240">105</tspan><tspan letter-spacing="-.074em" x="-9.343" y="1364">1</tspan><tspan x="-.668" y="1364">15</tspan><tspan x="-10.011" y="1488">125</tspan><tspan x="-10.011" y="1612">135</tspan><tspan x="-10.011" y="1736">145</tspan><tspan x="-10.011" y="1860">155</tspan><tspan x="-10.011" y="1984">165</tspan><tspan x="-10.011" y="2108">175</tspan><tspan x="-10.011" y="2232">185</tspan><tspan x="-10.011" y="2356">195</tspan><tspan x="-10.011" y="2480">205</tspan><tspan x="-10.011" y="2604">215</tspan><tspan x="-10.011" y="2728">225</tspan><tspan x="-10.011" y="2852">235</tspan><tspan x="-10.011" y="2976">245</tspan><tspan x="-10.011" y="3100">255</tspan><tspan x="-10.011" y="3224">265</tspan><tspan x="-10.011" y="3348">275</tspan><tspan x="-10.011" y="3472">285</tspan><tspan x="-10.011" y="3596">295</tspan></text></g><g id="Icons"><path d="m37 72a1 1 0 0 1 -.538-.157c-16.418-10.464-26.22-26.985-26.22-44.194v-13.316a1 1 0 0 1 .957-1 35.878 35.878 0 0 0 25.082-11.028 1 1 0 0 1 1.484.051c6.111 7.261 14.291 10.852 25.005 10.977a1 1 0 0 1 .988 1v13.316c0 17.209-9.8 33.73-26.22 44.194a1 1 0 0 1 -.538.157zm-24.758-56.719v12.368c0 16.335 9.242 32.051 24.758 42.162 15.516-10.111 24.758-25.827 24.758-42.162v-12.337c-10.443-.327-18.578-3.882-24.807-10.843a37.666 37.666 0 0 1 -24.709 10.812z"/><path d="m48.154 49.625h-7.613a1 1 0 0 1 -1-1v-6.1h-5.091v6.1a1 1 0 0 1 -1 1h-7.614a1 1 0 0 1 -1-1v-14.325a1 1 0 0 1 1-1h22.318a1 1 0 0 1 1 1v14.325a1 1 0 0 1 -1 1zm-6.613-2h5.613v-12.325h-20.318v12.325h5.614v-6.1a1 1 0 0 1 1-1h7.091a1 1 0 0 1 1 1z"/><path d="m52.514 35.29h-31.028a1 1 0 0 1 -.687-1.728l5.6-5.288a1 1 0 1 1 1.373 1.454l-3.772 3.562h26l-13.01-12.269-4.39 4.143a1 1 0 1 1 -1.374-1.454l5.074-4.792a1 1 0 0 1 1.373 0l15.527 14.644a1 1 0 0 1 -.686 1.728z"/><path d="m27.083 30.005a1 1 0 0 1 -1-1v-9.63a1 1 0 0 1 1-1h4.84a1 1 0 0 1 1 1v5.065a1 1 0 0 1 -2 0v-4.065h-2.84v8.63a1 1 0 0 1 -1 1z"/></g></svg>