<svg id="Icons" height="512" viewBox="0 0 74 74" width="512" xmlns="http://www.w3.org/2000/svg"><path d="m12.894 31.583a.991.991 0 0 1 -.52-.146l-2.4-1.464a1 1 0 1 1 1.041-1.707l2.4 1.464a1 1 0 0 1 -.521 1.854z"/><path d="m10.494 30.119h-5.965a2.532 2.532 0 0 1 -2.529-2.53v-1.636a2.531 2.531 0 0 1 2.529-2.529h4.436a2.531 2.531 0 0 1 2.529 2.529v3.166a1 1 0 0 1 -1 1zm-5.965-4.695a.53.53 0 0 0 -.529.529v1.637a.53.53 0 0 0 .529.529h4.965v-2.166a.53.53 0 0 0 -.529-.529z"/><path d="m64.507 50.614h-55.014a4.313 4.313 0 0 1 -4.308-4.308v-6.086a11.294 11.294 0 0 1 11.282-11.282h41.066a11.294 11.294 0 0 1 11.281 11.282v6.086a4.313 4.313 0 0 1 -4.307 4.308zm-48.04-19.676a9.292 9.292 0 0 0 -9.281 9.282v6.086a2.31 2.31 0 0 0 2.308 2.308h55.013a2.31 2.31 0 0 0 2.308-2.308v-6.086a9.292 9.292 0 0 0 -9.281-9.282z"/><path d="m12.894 31.583a1 1 0 0 1 -.883-1.468l4.913-9.272a7.359 7.359 0 0 1 6.517-3.922h27.134a7.359 7.359 0 0 1 6.525 3.93l4.892 9.265a1 1 0 1 1 -1.769.934l-4.892-9.265a5.363 5.363 0 0 0 -4.753-2.865h-27.137a5.361 5.361 0 0 0 -4.749 2.858l-4.913 9.272a1 1 0 0 1 -.885.533z"/><path d="m61.106 31.583a1 1 0 0 1 -.521-1.854l2.4-1.464a1 1 0 1 1 1.041 1.707l-2.4 1.464a.991.991 0 0 1 -.52.147z"/><path d="m69.471 30.119h-5.965a1 1 0 0 1 -1-1v-3.166a2.531 2.531 0 0 1 2.529-2.529h4.437a2.531 2.531 0 0 1 2.528 2.529v1.637a2.532 2.532 0 0 1 -2.529 2.529zm-4.965-2h4.965a.53.53 0 0 0 .529-.53v-1.636a.53.53 0 0 0 -.529-.529h-4.436a.53.53 0 0 0 -.529.529z"/><path d="m56.946 45.148a4.429 4.429 0 1 1 4.429-4.429 4.434 4.434 0 0 1 -4.429 4.429zm0-6.858a2.429 2.429 0 1 0 2.429 2.429 2.432 2.432 0 0 0 -2.429-2.429z"/><path d="m17.054 45.148a4.429 4.429 0 1 1 4.429-4.429 4.434 4.434 0 0 1 -4.429 4.429zm0-6.858a2.429 2.429 0 1 0 2.429 2.429 2.432 2.432 0 0 0 -2.429-2.429z"/><path d="m47.625 43.441h-21.25a1 1 0 0 1 -1-1 5.651 5.651 0 0 1 5.645-5.641h11.96a5.651 5.651 0 0 1 5.645 5.645 1 1 0 0 1 -1 .996zm-20.11-2h18.97a3.651 3.651 0 0 0 -3.5-2.645h-11.965a3.651 3.651 0 0 0 -3.505 2.645z"/><path d="m60.913 57.08h-6.088a2.352 2.352 0 0 1 -2.349-2.35v-5.116a1 1 0 0 1 1-1h8.786a1 1 0 0 1 1 1v5.116a2.352 2.352 0 0 1 -2.349 2.35zm-6.437-6.465v4.115a.35.35 0 0 0 .349.35h6.087a.35.35 0 0 0 .35-.35v-4.116z"/><path d="m19.175 57.08h-6.088a2.352 2.352 0 0 1 -2.35-2.35v-5.116a1 1 0 0 1 1-1h8.786a1 1 0 0 1 1 1v5.116a2.352 2.352 0 0 1 -2.348 2.35zm-6.437-6.465v4.115a.35.35 0 0 0 .35.35h6.087a.35.35 0 0 0 .349-.35v-4.116z"/></svg>