<svg id="Icons" height="512" viewBox="0 0 74 74" width="512" xmlns="http://www.w3.org/2000/svg"><path d="m61.73 49.1a1 1 0 0 1 -1-1v-2.97a1 1 0 0 1 2 0v2.97a1 1 0 0 1 -1 1z"/><path d="m58.64 72.67h-43.28a4.094 4.094 0 0 1 -4.09-4.09v-61.82a4.094 4.094 0 0 1 4.09-4.09h43.28a4.094 4.094 0 0 1 4.09 4.09v21.47a1 1 0 0 1 -2 0v-21.47a2.092 2.092 0 0 0 -2.09-2.09h-43.28a2.092 2.092 0 0 0 -2.09 2.09v61.82a2.092 2.092 0 0 0 2.09 2.09h43.28a2.092 2.092 0 0 0 2.09-2.09v-13.48a1 1 0 0 1 2 0v13.48a4.094 4.094 0 0 1 -4.09 4.09z"/><path d="m61.73 39.13a1 1 0 0 1 -1-1v-2.9a1 1 0 0 1 2 0v2.9a1 1 0 0 1 -1 1z"/><path d="m53.484 22.955h-32.968a2.034 2.034 0 0 1 -2.032-2.031v-8.757a2.034 2.034 0 0 1 2.032-2.031h32.968a2.034 2.034 0 0 1 2.032 2.031v8.757a2.034 2.034 0 0 1 -2.032 2.031zm-32.968-10.819-.032.031v8.757l33 .031.032-8.788z"/><path d="m53.313 38.752h-4.722a2.032 2.032 0 0 1 -2.03-2.03v-4.722a2.032 2.032 0 0 1 2.03-2.03h4.722a2.032 2.032 0 0 1 2.031 2.03v4.722a2.032 2.032 0 0 1 -2.031 2.03zm-4.722-6.782-.03.03v4.722l4.752.03.031-4.752z"/><path d="m39.361 38.752h-4.722a2.033 2.033 0 0 1 -2.031-2.03v-4.722a2.033 2.033 0 0 1 2.031-2.03h4.722a2.033 2.033 0 0 1 2.031 2.03v4.722a2.033 2.033 0 0 1 -2.031 2.03zm-4.722-6.782-.031.03v4.722l4.753.03.031-4.752z"/><path d="m25.409 38.752h-4.721a2.032 2.032 0 0 1 -2.031-2.03v-4.722a2.032 2.032 0 0 1 2.031-2.03h4.721a2.032 2.032 0 0 1 2.03 2.03v4.722a2.032 2.032 0 0 1 -2.03 2.03zm-4.721-6.782-.031.03v4.722l4.752.03.03-4.752z"/><path d="m39.361 51.682h-4.722a2.034 2.034 0 0 1 -2.031-2.03v-4.722a2.034 2.034 0 0 1 2.031-2.03h4.722a2.034 2.034 0 0 1 2.031 2.031v4.722a2.034 2.034 0 0 1 -2.031 2.029zm-4.722-6.782-.031.031v4.722l4.753.03.031-4.752z"/><path d="m25.409 51.682h-4.721a2.033 2.033 0 0 1 -2.031-2.03v-4.722a2.033 2.033 0 0 1 2.031-2.03h4.721a2.033 2.033 0 0 1 2.03 2.031v4.722a2.033 2.033 0 0 1 -2.03 2.029zm-4.721-6.782-.031.031v4.722l4.752.03.03-4.752z"/><path d="m53.31 64.613h-4.719a2.032 2.032 0 0 1 -2.03-2.03v-17.649a2.033 2.033 0 0 1 2.03-2.031h4.719a2.033 2.033 0 0 1 2.03 2.031v17.649a2.032 2.032 0 0 1 -2.03 2.03zm-4.719-19.713-.03 17.68 4.749.03.03-17.679a.031.031 0 0 0 -.03-.031z"/><path d="m39.361 64.612h-4.722a2.033 2.033 0 0 1 -2.031-2.03v-4.722a2.033 2.033 0 0 1 2.031-2.03h4.722a2.033 2.033 0 0 1 2.031 2.03v4.722a2.033 2.033 0 0 1 -2.031 2.03zm-4.722-6.782-.031.03v4.722l4.753.03.031-4.752z"/><path d="m25.409 64.612h-4.721a2.032 2.032 0 0 1 -2.031-2.03v-4.722a2.032 2.032 0 0 1 2.031-2.03h4.721a2.032 2.032 0 0 1 2.03 2.03v4.722a2.032 2.032 0 0 1 -2.03 2.03zm-4.721-6.782-.031.03v4.722l4.752.03.03-4.752z"/></svg>