<svg id="Icons" height="512" viewBox="0 0 74 74" width="512" xmlns="http://www.w3.org/2000/svg"><path d="m66.568 68.651h-59.142a1 1 0 0 1 -1-1v-30.223a1 1 0 0 1 1-1h59.142a1 1 0 0 1 1 1v30.223a1 1 0 0 1 -1 1zm-58.143-2h57.143v-28.223h-57.142z"/><path d="m31.158 68.651h-14.322a1 1 0 0 1 -1-1v-20.482a1 1 0 0 1 1-1h14.322a1 1 0 0 1 1 1v20.482a1 1 0 0 1 -1 1zm-13.322-2h12.322v-18.482h-12.322z"/><path d="m71 31.306h-68a1 1 0 0 1 -.576-1.817l33.993-23.957a1 1 0 0 1 1.152 0l34.007 23.956a1 1 0 0 1 -.576 1.818zm-64.845-2h61.689l-30.851-21.734z"/><path d="m71 38.428h-68a1 1 0 0 1 -1-1v-7.122a1 1 0 0 1 1-1h68a1 1 0 0 1 1 1v7.122a1 1 0 0 1 -1 1zm-67-2h66v-5.122h-66z"/><path d="m27.913 58.821a1 1 0 0 1 -1-1v-1.955a1 1 0 0 1 2 0v1.955a1 1 0 0 1 -1 1z"/><path d="m17.51 21.08a1 1 0 0 1 -1-1v-13.73a1 1 0 0 1 1-1h11.94a1 1 0 0 1 1 1v5.32a1 1 0 0 1 -2 0v-4.32h-9.94v12.73a1 1 0 0 1 -1 1z"/><path d="m58.375 59h-16.75a1 1 0 0 1 -1-1v-12a1 1 0 0 1 1-1h16.75a1 1 0 0 1 1 1v12a1 1 0 0 1 -1 1zm-15.75-2h14.75v-10h-14.75z"/></svg>