<svg id="Capa_1" enable-background="new 0 0 502.171 502.171" height="512" viewBox="0 0 502.171 502.171" width="512" xmlns="http://www.w3.org/2000/svg"><g><path d="m430.466 502.171h-358.696c-3.962 0-7.174-3.212-7.174-7.174v-265.435c0-3.962 3.212-7.174 7.174-7.174h358.696c3.962 0 7.174 3.212 7.174 7.174v265.435c0 3.962-3.212 7.174-7.174 7.174zm-351.522-14.348h344.348v-251.087h-344.348z"/><path d="m480.683 236.736h-459.131c-3.962.016-7.187-3.183-7.202-7.145-.008-1.951.78-3.821 2.181-5.179l229.565-222.393c2.781-2.692 7.197-2.692 9.979 0l229.565 222.392c2.845 2.758 2.915 7.299.158 10.144-1.342 1.385-3.186 2.171-5.115 2.181zm-441.411-14.348h423.692l-211.846-205.232z"/><path d="m251.118 186.518c-23.772 0-43.044-19.271-43.044-43.044s19.271-43.044 43.044-43.044 43.044 19.271 43.044 43.044c-.028 23.762-19.283 43.017-43.044 43.044zm0-71.739c-15.848 0-28.696 12.848-28.696 28.696s12.847 28.696 28.696 28.696 28.696-12.848 28.696-28.696-12.848-28.696-28.696-28.696z"/><path d="m131.837 359.252c-3.962-.006-7.169-3.223-7.163-7.185.002-1.402.415-2.772 1.187-3.942 6.798-10.033 15.568-18.576 25.776-25.109 22.447-14.577 49.78-19.298 81.302-14.047 3.909.654 6.547 4.352 5.893 8.261s-4.352 6.547-8.261 5.893c-24.364-5.269-49.82-.996-71.129 11.937-8.554 5.45-15.908 12.585-21.615 20.969-1.328 2.014-3.579 3.224-5.99 3.223z"/><path d="m180.462 361.124c-9.273.039-18.048-4.195-23.789-11.478-7.593-10.245-10.546-23.203-8.142-35.726 5.811-37.649 40.798-45.009 58.475-43.582 66.961.552 96.927 65.484 98.168 68.253 1.624 3.614.011 7.86-3.602 9.484-1.759.791-3.763.84-5.559.136-24.19-9.498-79.803 3.587-99.194 9.419-5.177 2.208-10.731 3.394-16.357 3.494zm23.365-76.538c-8.795 0-36.587 2.303-41.099 31.522-1.728 8.522.108 17.38 5.079 24.513 5.474 6.722 13.401 7.891 24.277 3.479 3.121-.961 55.827-16.643 92.178-13.013-11.866-17.533-37.39-46.078-77.859-46.422-.273-.022-1.198-.079-2.576-.079z"/><path d="m273.134 425.804c-9.997.016-19.938-1.508-29.47-4.52-11.573-3.576-22.298-9.468-31.522-17.318-2.993-2.605-3.308-7.143-.703-10.137 2.605-2.993 7.143-3.308 10.137-.703 7.727 6.559 16.71 11.475 26.4 14.448 23.988 6.783 49.663 4.11 71.739-7.468 3.614-1.625 7.86-.012 9.485 3.601 1.595 3.547.073 7.718-3.43 9.405-16.405 8.034-34.373 12.367-52.636 12.692z"/><path d="m289.986 460.906c-20.352.756-39.032-11.211-46.853-30.016-5.67-11.434-6.284-24.722-1.693-36.63 3.508-8.02 13.006-21.07 37.218-18.329 19.7.423 76.689-1.829 97.465-17.425 3.168-2.38 7.665-1.742 10.045 1.426 1.161 1.545 1.649 3.493 1.355 5.404-.459 2.992-12.023 73.569-76.883 92.113-6.64 2.311-13.623 3.48-20.654 3.457zm-17.454-70.978c-7.54-.92-14.804 3.165-17.935 10.087-2.896 8.2-2.302 17.229 1.643 24.98 14.147 31.4 48.546 19.37 50.002 18.81 39.234-11.234 56.322-45.583 63.131-65.649-34.105 13.186-88.993 12.102-91.711 12.102-1.703-.203-3.416-.313-5.13-.33z"/></g></svg>