<svg id="Icons" height="512" viewBox="0 0 74 74" width="512" xmlns="http://www.w3.org/2000/svg"><path d="m71 54.334a1 1 0 0 1 -.707-.293l-14.179-14.179h-41.914a1 1 0 0 1 -.857-.485l-11.2-18.677a1 1 0 1 1 1.714-1.029l10.914 18.191h41.757a1 1 0 0 1 .707.293l14.472 14.472a1 1 0 0 1 -.707 1.707z"/><path d="m26.03 27.43h-2.9a1 1 0 0 1 0-2h2.9a1 1 0 0 1 0 2z"/><path d="m16.13 27.43h-9.38a1 1 0 0 1 0-2h9.38a1 1 0 1 1 0 2z"/><path d="m45.32 27.43h-12.29a1 1 0 0 1 0-2h12.29a1 1 0 0 1 0 2z"/><path d="m36.412 39.863a.989.989 0 0 1 -.3-.047 1 1 0 0 1 -.653-1.254l3.921-12.437a1 1 0 0 1 1.908.6l-3.922 12.438a1 1 0 0 1 -.954.7z"/><path d="m14.2 54.811a1 1 0 0 1 -1-1v-14.949a1 1 0 0 1 2 0v14.949a1 1 0 0 1 -1 1z"/><path d="m56.528 54.811a1 1 0 0 1 -1-1v-14.949a1 1 0 0 1 2 0v14.949a1 1 0 0 1 -1 1z"/></svg>