<?xml version="1.0"?>
<svg xmlns="http://www.w3.org/2000/svg" id="Icons" viewBox="0 0 74 74" width="512" height="512"><path d="M27,58.453H22.113a1,1,0,0,1-1-1V43.571H8.643V57.453a1,1,0,0,1-1,1H3a1,1,0,0,1-1-1V16.547a1,1,0,0,1,1-1H7.643a1,1,0,0,1,1,1V36h16.5A2.861,2.861,0,0,1,28,38.857v18.6A1,1,0,0,1,27,58.453Zm-3.887-2H26v-17.6A.857.857,0,0,0,25.143,38H7.643a1,1,0,0,1-1-1V17.547H4V56.453H6.643V42.571a1,1,0,0,1,1-1h14.47a1,1,0,0,1,1,1Z"/><path d="M71,43.44a1,1,0,0,1-1-1V39.5a1,1,0,0,1,2,0v2.94A1,1,0,0,1,71,43.44Z"/><path d="M71,58.45H66.36a1,1,0,0,1-1-1V43.57H52.89V57.45a1,1,0,0,1-1,1H47a1,1,0,0,1-1-1V38.86A2.863,2.863,0,0,1,48.86,36h16.5V16.55a1,1,0,0,1,1-1H71a1,1,0,0,1,1,1v6.01a1,1,0,1,1-2,0V17.55H67.36V37a1,1,0,0,1-1,1H48.86a.861.861,0,0,0-.86.86V56.45h2.89V42.57a1,1,0,0,1,1-1H66.36a1,1,0,0,1,1,1V56.45H70V49.44a1,1,0,0,1,2,0v8.01A1,1,0,0,1,71,58.45Z"/><path d="M71,33.5a1,1,0,0,1-1-1V29.56a1,1,0,0,1,2,0V32.5A1,1,0,0,1,71,33.5Z"/><path d="M37,59a1,1,0,0,1-1-1V30.312a1,1,0,1,1,2,0V58A1,1,0,0,1,37,59Z"/><path d="M56,31.312H18a1,1,0,0,1-1-1V25.344a1,1,0,0,1,1-1H56a1,1,0,0,1,1,1v4.968A1,1,0,0,1,56,31.312Zm-37-2H55V26.344H19Z"/><path d="M40.417,59H33.583a1,1,0,0,1,0-2h6.834a1,1,0,0,1,0,2Z"/></svg>
