<svg id="Capa_1" enable-background="new 0 0 502.195 502.195" height="512" viewBox="0 0 502.195 502.195" width="512" xmlns="http://www.w3.org/2000/svg"><g><path d="m420.239 410.23c-3.469-.004-6.438-2.49-7.052-5.904-3.393-18.853-15.123-109.359 58.109-164.347-26.694 3.479-70.979 22.089-96.425 102.401-1.199 3.776-5.232 5.866-9.008 4.667-3.021-.959-5.055-3.787-5.003-6.956.1-5.531 2.755-127.588 52.434-223.461-22.239 15.359-56.358 50.756-68.446 127.28-.55 3.485-3.553 6.052-7.081 6.055h-.065c-3.554-.034-6.547-2.664-7.038-6.184-.151-1.105-14.843-101.798-65.641-131.419 12.533 31.838 36.279 105.127 23.846 179.499-.651 3.908-4.347 6.549-8.255 5.898-1.426-.238-2.747-.9-3.79-1.902-1.535-1.471-35.059-34.621-38.617-118.621-26.608 38.39-38.104 85.253-32.283 131.598.56 3.922-2.166 7.556-6.088 8.116-3.385.483-6.641-1.49-7.779-4.715-1.55-4.347-32.225-92.486-7.576-157.561-13.745 16.665-28.093 46.222-29.6 97.938-.114 3.96-3.418 7.078-7.378 6.964-3.396-.098-6.258-2.565-6.855-5.909-.179-1.019-17.461-93.978-68.454-107.48 16.701 28.423 52.37 99 39.457 165.05-.76 3.889-4.528 6.425-8.416 5.665-2.218-.433-4.102-1.887-5.085-3.922-.359-.717-32.283-65.842-75.025-72.722 37.428 45.836 55.02 104.71 48.876 163.565-.476 3.906-3.974 6.723-7.891 6.356-3.935-.425-6.782-3.956-6.363-7.891 5.878-60.058-14.351-119.744-55.533-163.852-2.863-2.739-2.964-7.28-.225-10.143 1.061-1.109 2.45-1.849 3.962-2.11 43.187-7.418 77.278 34.801 93.978 60.978 2.403-71.538-47.054-144.913-47.599-145.724-2.236-3.271-1.397-7.735 1.874-9.971 1.141-.78 2.483-1.214 3.865-1.249h1.593c46.631 0 72.184 47.678 84.76 83.218 13.996-76.833 59.644-91.74 61.868-92.414 3.792-1.149 7.797.993 8.947 4.784.717 2.365.166 4.932-1.457 6.795-27.211 31.321-27.053 80.929-21.364 119.324 6.333-37.143 22.754-71.83 47.47-100.27 2.724-2.877 7.265-3.001 10.142-.277 1.463 1.385 2.276 3.321 2.241 5.335-1.033 60.935 14.104 97.357 24.657 115.228 7.705-86.396-31.486-168.817-31.902-169.699-1.706-3.576-.19-7.858 3.386-9.564 1.511-.721 3.227-.891 4.85-.48 49.758 12.741 73.992 75.986 84.545 116.131 26.486-95.413 88.698-115.177 91.618-116.053 3.792-1.148 7.797.995 8.945 4.787.596 1.967.319 4.096-.76 5.845-38.782 61.875-53.517 143.751-59.077 193.402 45.576-84.753 117.222-70.233 118.025-70.068 3.87.848 6.32 4.674 5.471 8.544-.444 2.026-1.744 3.761-3.563 4.757-86.905 47.599-74.508 143.478-71.137 162.245.701 3.9-1.891 7.629-5.791 8.331-.428.076-.862.114-1.297.112z"/><path d="m451.955 410.23h-430.435c-3.962 0-7.174-3.212-7.174-7.174s3.212-7.174 7.174-7.174h430.435c3.962 0 7.174 3.212 7.174 7.174s-3.212 7.174-7.174 7.174z"/></g></svg>