<svg id="Capa_1" enable-background="new 0 0 502.167 502.167" height="512" viewBox="0 0 502.167 502.167" width="512" xmlns="http://www.w3.org/2000/svg"><g><path d="m401.9 502.167h-301.304c-11.886 0-21.522-9.636-21.522-21.522v-239.178c0-3.962 3.212-7.174 7.174-7.174s7.174 3.212 7.174 7.174v239.179c0 3.962 3.212 7.174 7.174 7.174h301.304c3.962 0 7.174-3.212 7.174-7.174v-239.179c0-3.962 3.212-7.174 7.174-7.174s7.174 3.212 7.174 7.174v239.179c0 11.885-9.635 21.521-21.522 21.521z"/><path d="m452.118 272.601c-9.517.028-18.65-3.754-25.36-10.503l-175.51-175.51-175.51 175.51c-13.83 14.183-36.54 14.47-50.723.639-14.183-13.83-14.47-36.54-.639-50.723.212-.217.426-.431.643-.643l200.87-200.87c14.007-14.003 36.713-14.003 50.72 0l200.87 200.87c14.006 14.01 14.002 36.721-.008 50.727-6.726 6.724-15.844 10.501-25.353 10.503zm-200.87-203.33c1.902 0 3.727.757 5.072 2.102l180.582 180.582c8.517 8.124 21.914 8.124 30.432 0 8.405-8.404 8.407-22.031.003-30.436-.001-.001-.002-.002-.003-.003l-200.87-200.87c-8.517-8.124-21.914-8.124-30.432 0l-200.87 200.87c-8.405 8.404-8.407 22.031-.003 30.436l.003.003c8.517 8.124 21.914 8.124 30.432 0l180.582-180.582c1.345-1.346 3.17-2.102 5.072-2.102z"/><path d="m311.473 502.167c-3.962 0-7.174-3.212-7.174-7.174v-172.174c0-3.962 3.212-7.174 7.174-7.174s7.174 3.212 7.174 7.174v172.174c0 3.962-3.212 7.174-7.174 7.174z"/><path d="m317.729 409.164c-2.253 0-4.541-.093-6.837-.28-3.505-.284-6.287-3.066-6.571-6.571-4.51-38.059 22.687-72.567 60.746-77.077 5.425-.643 10.906-.643 16.331 0 3.505.284 6.287 3.066 6.571 6.571 2.24 21.081-5.035 42.063-19.843 57.234-13.414 13.205-31.577 20.457-50.397 20.123zm56.193-69.845c-30.026-.625-54.873 23.21-55.498 53.236-.016.756-.016 1.513 0 2.269 30.022.629 54.869-23.199 55.498-53.221.016-.762.016-1.523 0-2.284z"/><path d="m303.733 452.459c-13.823.337-27.198-4.916-37.096-14.57-11.633-12.181-16.825-29.143-14.004-45.748.419-3.23 2.961-5.772 6.191-6.191 27.61-5.387 54.359 12.629 59.746 40.239 1.257 6.443 1.257 13.069-.001 19.513-.418 3.227-2.957 5.769-6.184 6.191-2.869.374-5.759.563-8.652.566zm-37.298-52.714c-1.517 19.665 13.195 36.836 32.86 38.352 1.83.141 3.669.141 5.499-.001 1.525-19.656-13.173-36.827-32.829-38.352-1.84-.142-3.689-.142-5.53.001z"/><path d="m173.648 502.167c-3.962 0-7.174-3.212-7.174-7.174v-172.174c0-3.962 3.212-7.174 7.174-7.174s7.174 3.212 7.174 7.174v172.174c0 3.962-3.212 7.174-7.174 7.174z"/><path d="m179.903 409.164c-2.253 0-4.541-.093-6.837-.28-3.505-.284-6.287-3.066-6.571-6.571-4.51-38.059 22.687-72.567 60.746-77.077 5.425-.643 10.906-.643 16.331 0 3.505.284 6.287 3.066 6.571 6.571 2.237 21.079-5.037 42.058-19.843 57.226-13.413 13.208-31.576 20.463-50.397 20.131zm56.165-69.845c-30.026-.625-54.873 23.21-55.498 53.236-.016.756-.016 1.513 0 2.269 30.022.629 54.869-23.199 55.498-53.221.016-.762.016-1.523 0-2.284z"/><path d="m165.878 452.459c-13.823.34-27.199-4.914-37.096-14.57-11.635-12.18-16.827-29.143-14.003-45.748.419-3.23 2.961-5.772 6.191-6.191 16.608-2.833 33.578 2.36 45.755 14.004 11.635 12.18 16.827 29.143 14.003 45.748-.419 3.23-2.961 5.772-6.191 6.191-2.871.374-5.763.564-8.659.566zm-37.304-52.714c-1.517 19.665 13.195 36.836 32.859 38.353 1.833.141 3.674.141 5.507-.001 1.517-19.665-13.195-36.836-32.859-38.353-1.833-.142-3.674-.141-5.507.001z"/></g></svg>