<svg id="Icons" height="512" viewBox="0 0 74 74" width="512" xmlns="http://www.w3.org/2000/svg"><path d="m25.71 64h-2.9a1 1 0 0 1 0-2h2.9a1 1 0 1 1 0 2z"/><path d="m65.5 64h-22.82a1 1 0 0 1 0-2h22.82v-32h-57v32h7.31a1 1 0 0 1 0 2h-7.31a2 2 0 0 1 -2-2v-33a1 1 0 0 1 1-1h59a1 1 0 0 1 1 1v33a2 2 0 0 1 -2 2z"/><path d="m35.68 64h-2.97a1 1 0 0 1 0-2h2.97a1 1 0 1 1 0 2z"/><path d="m70 30h-66a2 2 0 0 1 -2-2v-5a2 2 0 0 1 2-2h66a2 2 0 0 1 2 2v5a2 2 0 0 1 -2 2zm-66-7v5h66v-5z"/><path d="m64 23h-15a1 1 0 0 1 -1-1v-3.781a2.221 2.221 0 0 1 2.219-2.219h12.562a2.221 2.221 0 0 1 2.219 2.219v3.781a1 1 0 0 1 -1 1zm-14-2h13v-2.781a.219.219 0 0 0 -.219-.219h-12.562a.219.219 0 0 0 -.219.219z"/><path d="m60.5 18h-8a1 1 0 0 1 -1-1v-3.792a1.96 1.96 0 0 1 1.958-1.958h6.084a1.96 1.96 0 0 1 1.958 1.958v3.792a1 1 0 0 1 -1 1zm-7.011-2h6.011v-2.792l-6.042.042z"/><path d="m25 23h-15a1 1 0 0 1 -1-1v-3.781a2.221 2.221 0 0 1 2.219-2.219h12.562a2.221 2.221 0 0 1 2.219 2.219v3.781a1 1 0 0 1 -1 1zm-14-2h13v-2.781a.219.219 0 0 0 -.219-.219h-12.562a.219.219 0 0 0 -.219.219z"/><path d="m21.5 18h-8a1 1 0 0 1 -1-1v-3.792a1.96 1.96 0 0 1 1.958-1.958h6.084a1.96 1.96 0 0 1 1.958 1.958v3.792a1 1 0 0 1 -1 1zm-7.011-2h6.011v-2.792l-6.042.042z"/><path d="m32.617 56.39a1 1 0 0 1 -.964-1.266l2.324-8.416h-3.946a1 1 0 0 1 -.9-1.424l4.257-9.1a1 1 0 0 1 .9-.577h6.552a1 1 0 0 1 .9 1.432l-2.069 4.331 4.352.248a1 1 0 0 1 .691 1.663l-11.35 12.773a1 1 0 0 1 -.747.336zm-1.017-11.682h3.69a1 1 0 0 1 .964 1.266l-1.529 5.54 7.123-8.014-3.777-.215a1 1 0 0 1 -.845-1.43l2.028-4.245h-4.33z"/></svg>