<svg id="Icons" height="512" viewBox="0 0 74 74" width="512" xmlns="http://www.w3.org/2000/svg"><path d="m67.318 57.859h-5.676a1 1 0 0 1 -1-1v-25.2a5.679 5.679 0 1 1 7.676 5.3v19.9a1 1 0 0 1 -1 1zm-4.676-2h3.676v-19.647a1 1 0 0 1 .789-.978 3.676 3.676 0 1 0 -4.465-3.58z"/><path d="m12.358 57.859h-5.676a1 1 0 0 1 -1-1v-19.9a5.677 5.677 0 1 1 7.676-5.3v25.2a1 1 0 0 1 -1 1zm-4.676-2h3.676v-24.2a3.679 3.679 0 1 0 -4.465 3.58 1 1 0 0 1 .789.978z"/><path d="m61.642 55.947h-49.284a1 1 0 0 1 0-2h49.284a1 1 0 0 1 0 2z"/><path d="m61.642 48.5h-24.642a1 1 0 0 1 -1-1v-3.35a5.049 5.049 0 0 1 5.044-5.05h20.6a1 1 0 0 1 1 1v7.4a1 1 0 0 1 -1.002 1zm-23.642-2h22.642v-5.4h-19.6a3.047 3.047 0 0 0 -3.042 3.047z"/><path d="m37 48.5h-24.643a1 1 0 0 1 -1-1v-7.4a1 1 0 0 1 1-1h20.6a5.049 5.049 0 0 1 5.043 5.047v3.353a1 1 0 0 1 -1 1zm-23.643-2h22.643v-2.35a3.047 3.047 0 0 0 -3.045-3.05h-19.6z"/><path d="m63.78 28.73a1 1 0 0 1 -1-1v-4.56a5.03 5.03 0 0 0 -5.02-5.03h-8.32a1 1 0 0 1 0-2h8.32a7.032 7.032 0 0 1 7.02 7.03v4.56a1 1 0 0 1 -1 1z"/><path d="m32.53 18.14h-2.97a1 1 0 0 1 0-2h2.97a1 1 0 0 1 0 2z"/><path d="m10.21 28.725a1 1 0 0 1 -1-1v-4.555a7.042 7.042 0 0 1 7.04-7.03h6.31a1 1 0 1 1 0 2h-6.31a5.04 5.04 0 0 0 -5.04 5.03v4.55a1 1 0 0 1 -1 1.005z"/><path d="m42.44 18.14h-2.91a1 1 0 0 1 0-2h2.91a1 1 0 0 1 0 2z"/></svg>