<svg id="Capa_1" enable-background="new 0 0 502.623 502.623" height="512" viewBox="0 0 502.623 502.623" width="512" xmlns="http://www.w3.org/2000/svg"><g><path d="m460.008 502.619h-417.393c-20.264-.283-36.461-16.94-36.178-37.204.278-19.864 16.314-35.9 36.178-36.178h417.393c20.264-.283 36.921 15.914 37.204 36.178s-15.914 36.921-36.178 37.204c-.342.005-.684.005-1.026 0zm-417.393-59.034c-12.34.221-22.164 10.404-21.943 22.744.216 12.028 9.915 21.727 21.943 21.943h417.393c12.34.221 22.522-9.603 22.744-21.943s-9.603-22.522-21.943-22.744c-.267-.005-.534-.005-.801 0z"/><path d="m460.008 443.585h-417.393c-20.264.283-36.921-15.914-37.204-36.178s15.914-36.921 36.178-37.204c.342-.005.684-.005 1.026 0h417.393c20.264-.283 36.921 15.914 37.204 36.178s-15.914 36.921-36.178 37.204c-.342.005-.684.005-1.026 0zm-417.393-59.034c-12.34-.221-22.522 9.603-22.744 21.943-.221 12.34 9.603 22.522 21.943 22.744.267.005.534.005.801 0h417.393c12.34.221 22.522-9.603 22.744-21.943.221-12.34-9.603-22.522-21.943-22.744-.267-.005-.534-.005-.801 0z"/><path d="m211.955 118.499c-3.962 0-7.174-3.212-7.174-7.174v-93.993c.001-3.962 3.213-7.173 7.175-7.172.425 0 .85.038 1.268.113l118.844 21.357c3.417.614 5.903 3.587 5.904 7.059v51.265c-.001 3.472-2.487 6.445-5.904 7.059l-118.85 21.371c-.417.075-.839.113-1.263.115zm7.174-92.587v76.833l104.503-18.788v-39.27z"/><path d="m400.3 384.099h-64.006c-3.962 0-7.174-3.212-7.174-7.174v-78.999c-.012-10.077-8.188-18.237-18.265-18.229h-152.726c-70.305 0-127.298-56.993-127.298-127.298s56.994-127.297 127.298-127.297h6.026c3.962 0 7.174 3.212 7.174 7.174v64.006c0 3.962-3.212 7.174-7.174 7.174h-5.969c-27.065.011-48.997 21.959-48.986 49.024.011 27.05 21.936 48.975 48.986 48.986h179.929c38.277.04 69.296 31.059 69.336 69.336v106.124c.001 3.953-3.198 7.161-7.151 7.173zm-56.832-14.348h49.658v-98.95c-.032-30.364-24.645-54.968-55.01-54.988h-179.929c-34.989-.075-63.292-28.5-63.216-63.489.074-34.413 27.606-62.474 62.011-63.202v-49.665c-62.379.317-112.69 51.141-112.373 113.52.317 62.378 51.142 112.689 113.52 112.372h152.726c17.983.02 32.557 14.593 32.577 32.577z"/><path d="m212.006 127.76h-47.85c-3.962 0-7.174-3.212-7.174-7.174v-113.412c0-3.962 3.212-7.174 7.174-7.174h47.85c3.962 0 7.174 3.212 7.174 7.174v113.413c-.001 3.962-3.212 7.173-7.174 7.173zm-40.677-14.347h33.502v-99.065h-33.502z"/></g></svg>