<svg id="Icons" height="512" viewBox="0 0 74 74" width="512" xmlns="http://www.w3.org/2000/svg"><path d="m60.23 62.82a1 1 0 0 1 -.676-1.737 27.607 27.607 0 0 0 2.036-2.083 1 1 0 0 1 1.5 1.322 29.921 29.921 0 0 1 -2.184 2.236 1 1 0 0 1 -.676.262z"/><path d="m37 72a35.04 35.04 0 0 1 -35-35 34.661 34.661 0 0 1 7.083-21.1 1 1 0 1 1 1.594 1.2 32.681 32.681 0 0 0 -6.677 19.9 33.039 33.039 0 0 0 41.066 32.01 1 1 0 0 1 .488 1.94 35.1 35.1 0 0 1 -8.554 1.05z"/><path d="m52.1 68.47a1 1 0 0 1 -.444-1.9c.808-.4 1.641-.858 2.477-1.361a1 1 0 0 1 1.032 1.713c-.883.532-1.765 1.017-2.623 1.441a1 1 0 0 1 -.442.107z"/><path d="m66.669 54.62a1 1 0 0 1 -.871-1.49 33.006 33.006 0 0 0 -48.587-42.541 1 1 0 0 1 -1.2-1.6 34.659 34.659 0 0 1 20.989-6.989 35.013 35.013 0 0 1 30.542 52.11 1 1 0 0 1 -.873.51z"/><path d="m37 63a26 26 0 1 1 25.293-32.01 1 1 0 0 1 -1.946.461 23.993 23.993 0 1 0 .374 9.2 1 1 0 1 1 1.978.3 26.16 26.16 0 0 1 -25.699 22.049z"/><path d="m37 54a16.96 16.96 0 0 1 -11.708-4.685 1 1 0 1 1 1.376-1.451 14.993 14.993 0 1 0 -4.668-10.864 14.765 14.765 0 0 0 .627 4.29 1 1 0 0 1 -1.914.581 16.773 16.773 0 0 1 -.713-4.871 17 17 0 1 1 17 17z"/><path d="m37 45a8 8 0 1 1 8-8 8.009 8.009 0 0 1 -8 8zm0-14a6 6 0 1 0 6 6 6.006 6.006 0 0 0 -6-6z"/><path d="m12.8 18.5a5.8 5.8 0 1 1 5.8-5.8 5.807 5.807 0 0 1 -5.8 5.8zm0-9.6a3.8 3.8 0 1 0 3.8 3.8 3.8 3.8 0 0 0 -3.8-3.8z"/><path d="m61.817 41.8a5.8 5.8 0 1 1 5.8-5.8 5.806 5.806 0 0 1 -5.8 5.8zm0-9.6a3.8 3.8 0 1 0 3.8 3.8 3.8 3.8 0 0 0 -3.8-3.8z"/><path d="m23.407 50.486a5.149 5.149 0 1 1 5.149-5.15 5.155 5.155 0 0 1 -5.149 5.15zm0-8.3a3.149 3.149 0 1 0 3.149 3.148 3.152 3.152 0 0 0 -3.149-3.146z"/></svg>