<svg id="Icons" height="512" viewBox="0 0 74 74" width="512" xmlns="http://www.w3.org/2000/svg"><path d="m36.564 72.543a32.345 32.345 0 0 1 -6.176-.618c-.532-.075-14.222-2.218-19.535-17.771-.208-.527-5.353-14.009 2.884-24.894a1 1 0 0 1 1.8.571c0 .085.333 8.368 5.145 9.567a4.7 4.7 0 0 0 2.545-1.961c.936-1.484 1.093-3.559.468-6.167-.107-.46-2.511-11.176 4.691-15.682.128-.07 6.04-3.194 7.267-7.39a5.111 5.111 0 0 0 -.55-4.164 1 1 0 0 1 1.176-1.449 10.5 10.5 0 0 1 5.7 5.068c1.366 2.784 1.359 6.148-.021 10-.009.028-1.686 5.264.441 9.332a8.707 8.707 0 0 0 5.376 4.2c1.021-.186 6.056-1.582 5.122-10.945a1 1 0 0 1 1.7-.807c.4.4 9.839 10.026 8.736 26.768a28.394 28.394 0 0 1 -11.401 21.399 25.7 25.7 0 0 1 -15.368 4.943zm-22.693-39.851c-5.417 9.583-1.187 20.655-1.14 20.774 4.921 14.4 17.461 16.41 17.992 16.488 7.612 1.479 14.338.139 20.039-3.976a26.4 26.4 0 0 0 10.573-19.9 35.418 35.418 0 0 0 -6.335-22.978 11.79 11.79 0 0 1 -2.39 7.33 7.663 7.663 0 0 1 -4.829 2.777.992.992 0 0 1 -.376-.038 10.7 10.7 0 0 1 -6.788-5.269c-2.515-4.827-.634-10.652-.553-10.9 1.2-3.346 1.236-6.186.117-8.466a8.051 8.051 0 0 0 -2.4-2.862 7.017 7.017 0 0 1 -.219 3.092c-1.471 5.016-7.92 8.416-8.194 8.558-5.917 3.706-3.758 13.391-3.736 13.488.76 3.168.509 5.773-.749 7.735a6.682 6.682 0 0 1 -4 2.862 1.009 1.009 0 0 1 -.39 0c-4.412-.883-6.032-5.596-6.622-8.715z"/><path d="m36.213 67.928a20.332 20.332 0 0 1 -8.136-1.958c-12.863-6.506-7.168-18.807-7.109-18.931a1 1 0 0 1 .9-.569 1 1 0 0 1 .9.571c1.452 3.057 3.324 4.99 5.563 5.746a7.573 7.573 0 0 0 5.353-.314c3.585-2.508-.93-12.379-2.8-15.656-3.863-8.361 3.241-13.582 3.313-13.633a1 1 0 0 1 1.581.75c.553 8.854 10.1 16.817 10.2 16.9a31.415 31.415 0 0 1 3.834 4.7 14.083 14.083 0 0 1 2.158 11.359c-2.412 9.332-12.681 10.739-13.521 10.839a12.385 12.385 0 0 1 -2.236.196zm-14.139-18.008c-.871 3.354-1.351 10.088 6.9 14.263.044.022 4.848 2.385 9.142 1.577l.074-.011c.4-.044 9.731-1.182 11.843-9.355a12.084 12.084 0 0 0 -1.878-9.738 29.7 29.7 0 0 0 -3.521-4.346c-.326-.262-8.92-7.432-10.6-16.252a8.652 8.652 0 0 0 -1.373 9.842c.8 1.387 7.976 14.344 2.088 18.27-.029.019-.059.037-.089.053a9.49 9.49 0 0 1 -6.929.47 10.831 10.831 0 0 1 -5.657-4.773z"/></svg>