<svg id="Icons" height="512" viewBox="0 0 74 74" width="512" xmlns="http://www.w3.org/2000/svg"><path d="m11 61h-4.99a4 4 0 0 1 -4-4v-40a4 4 0 0 1 4-4h4.99a1 1 0 0 1 0 2h-4.99a2 2 0 0 0 -2 2v40a2 2 0 0 0 2 2h4.99a1 1 0 0 1 0 2z"/><path d="m67.99 61h-40.99a1 1 0 0 1 0-2h40.99a2 2 0 0 0 2-2v-40a2 2 0 0 0 -2-2h-40.99a1 1 0 0 1 0-2h40.99a4 4 0 0 1 4 4v40a4 4 0 0 1 -4 4z"/><path d="m11 37a1 1 0 0 1 -1-1v-2.9a1 1 0 0 1 2 0v2.9a1 1 0 0 1 -1 1z"/><path d="m25 65.25h-12a3 3 0 0 1 -3-3v-9.28a1 1 0 0 1 2 0v9.28a1 1 0 0 0 1 1h12a1 1 0 0 0 1-1v-50.5a1 1 0 0 0 -1-1h-12a1 1 0 0 0 -1 1v14.35a1 1 0 0 1 -2 0v-14.35a3 3 0 0 1 3-3h12a3 3 0 0 1 3 3v50.5a3 3 0 0 1 -3 3z"/><path d="m11 46.97a1 1 0 0 1 -1-1v-2.97a1 1 0 0 1 2 0v2.97a1 1 0 0 1 -1 1z"/><path d="m65 29.371h-32a1 1 0 0 1 -1-1v-9a1 1 0 0 1 1-1h32a1 1 0 0 1 1 1v9a1 1 0 0 1 -1 1zm-31-2h30v-7h-30z"/><path d="m63.245 38.375h-5.278a1 1 0 0 1 -1-1v-4.431a1 1 0 0 1 1-1h5.278a1 1 0 0 1 1 1v4.431a1 1 0 0 1 -1 1zm-4.278-2h3.278v-2.431h-3.278z"/><path d="m51.634 38.375h-5.278a1 1 0 0 1 -1-1v-4.431a1 1 0 0 1 1-1h5.278a1 1 0 0 1 1 1v4.431a1 1 0 0 1 -1 1zm-4.278-2h3.278v-2.431h-3.278z"/><path d="m40.023 38.375h-5.278a1 1 0 0 1 -1-1v-4.431a1 1 0 0 1 1-1h5.278a1 1 0 0 1 1 1v4.431a1 1 0 0 1 -1 1zm-4.278-2h3.278v-2.431h-3.278z"/><path d="m63.245 47h-5.278a1 1 0 0 1 -1-1v-4.431a1 1 0 0 1 1-1h5.278a1 1 0 0 1 1 1v4.431a1 1 0 0 1 -1 1zm-4.278-2h3.278v-2.431h-3.278z"/><path d="m51.634 47h-5.278a1 1 0 0 1 -1-1v-4.431a1 1 0 0 1 1-1h5.278a1 1 0 0 1 1 1v4.431a1 1 0 0 1 -1 1zm-4.278-2h3.278v-2.431h-3.278z"/><path d="m40.023 47h-5.278a1 1 0 0 1 -1-1v-4.431a1 1 0 0 1 1-1h5.278a1 1 0 0 1 1 1v4.431a1 1 0 0 1 -1 1zm-4.278-2h3.278v-2.431h-3.278z"/><path d="m63.245 55.625h-5.278a1 1 0 0 1 -1-1v-4.431a1 1 0 0 1 1-1h5.278a1 1 0 0 1 1 1v4.431a1 1 0 0 1 -1 1zm-4.278-2h3.278v-2.431h-3.278z"/><path d="m51.634 55.625h-5.278a1 1 0 0 1 -1-1v-4.431a1 1 0 0 1 1-1h5.278a1 1 0 0 1 1 1v4.431a1 1 0 0 1 -1 1zm-4.278-2h3.278v-2.431h-3.278z"/><path d="m40.023 55.625h-5.278a1 1 0 0 1 -1-1v-4.431a1 1 0 0 1 1-1h5.278a1 1 0 0 1 1 1v4.431a1 1 0 0 1 -1 1zm-4.278-2h3.278v-2.431h-3.278z"/></svg>