<svg id="Icons" height="512" viewBox="0 0 74 74" width="512" xmlns="http://www.w3.org/2000/svg"><path d="m31.411 28.227a1 1 0 0 1 -1-1v-4.817a1 1 0 1 1 2 0v4.817a1 1 0 0 1 -1 1z"/><path d="m52.709 62.8a6.4 6.4 0 0 1 -4.042-1.349 4.738 4.738 0 0 0 -5.838 0 6.723 6.723 0 0 1 -8.079 0 4.736 4.736 0 0 0 -5.837 0 6.72 6.72 0 0 1 -8.077 0 4.462 4.462 0 0 0 -2.917-1.006 4.462 4.462 0 0 0 -2.919 1.007 6.39 6.39 0 0 1 -4.036 1.348 6.388 6.388 0 0 1 -4.038-1.349 4.464 4.464 0 0 0 -2.917-1.006 1 1 0 0 1 0-2 6.384 6.384 0 0 1 4.038 1.355 4.468 4.468 0 0 0 2.917 1 4.468 4.468 0 0 0 2.917-1 6.382 6.382 0 0 1 4.038-1.35 6.384 6.384 0 0 1 4.038 1.35 4.735 4.735 0 0 0 5.835 0 6.721 6.721 0 0 1 8.079 0 4.74 4.74 0 0 0 5.837 0 6.722 6.722 0 0 1 8.08 0 4.742 4.742 0 0 0 5.841 0 6.4 6.4 0 0 1 4.042-1.349 1 1 0 0 1 0 2 4.468 4.468 0 0 0 -2.921 1.006 6.4 6.4 0 0 1 -4.041 1.343z"/><path d="m52.71 70.59a6.4 6.4 0 0 1 -4.039-1.346 4.751 4.751 0 0 0 -5.838 0 6.443 6.443 0 0 1 -3.53 1.327.988.988 0 0 1 -1.061-.936 1 1 0 0 1 .936-1.06 4.506 4.506 0 0 0 2.538-.99 6.735 6.735 0 0 1 8.074 0 4.75 4.75 0 0 0 5.841 0 6.4 6.4 0 0 1 4.039-1.345 1 1 0 0 1 0 2 4.472 4.472 0 0 0 -2.92 1 6.406 6.406 0 0 1 -4.04 1.35z"/><path d="m22.269 69.97a1 1 0 0 1 -.483-.124c-.338-.187-.644-.393-.95-.6a5.344 5.344 0 0 0 -1.72-.879 1 1 0 1 1 .508-1.934 7.19 7.19 0 0 1 2.333 1.157c.257.174.513.348.8.5a1 1 0 0 1 -.484 1.875z"/><path d="m10.96 70.59a6.383 6.383 0 0 1 -4.029-1.345 4.473 4.473 0 0 0 -2.921-1.005 1 1 0 0 1 0-2 6.4 6.4 0 0 1 4.041 1.348 4.455 4.455 0 0 0 2.909 1 5.351 5.351 0 0 0 1.191-.126 1 1 0 0 1 .438 1.952 7.368 7.368 0 0 1 -1.629.176z"/><path d="m29.271 68.84a1 1 0 0 1 -.47-1.883 6.218 6.218 0 0 1 3.029-.717 3.771 3.771 0 0 1 .559.031 1 1 0 0 1 -.3 1.978 1.869 1.869 0 0 0 -.262-.009 4.134 4.134 0 0 0 -2.092.483 1 1 0 0 1 -.464.117z"/><path d="m45.771 60.442a1 1 0 0 1 -.811-1.583 16.127 16.127 0 1 0 -26.24 0 1 1 0 1 1 -1.62 1.165 18.127 18.127 0 1 1 29.49 0 1 1 0 0 1 -.819.418z"/><path d="m20.505 52.454a1 1 0 0 1 -.975-.779 11.729 11.729 0 0 1 7.087-13.532 1 1 0 1 1 .748 1.857 9.726 9.726 0 0 0 -5.884 11.234 1 1 0 0 1 -.753 1.2 1.016 1.016 0 0 1 -.223.02z"/><path d="m20.337 31.423a1 1 0 0 1 -.867-.5l-2.408-4.171a1 1 0 0 1 1.732-1l2.406 4.171a1 1 0 0 1 -.865 1.5z"/><path d="m12.343 39.729a.991.991 0 0 1 -.5-.133l-4.171-2.408a1 1 0 0 1 1-1.733l4.172 2.408a1 1 0 0 1 -.5 1.866z"/><path d="m9.575 50.919h-4.817a1 1 0 0 1 0-2h4.817a1 1 0 1 1 0 2z"/><path d="m58.922 50.063h-4.822a1 1 0 0 1 0-2h4.818a1 1 0 0 1 0 2z"/><path d="m50.908 38.988a1 1 0 0 1 -.5-1.866l4.172-2.409a1 1 0 0 1 1 1.733l-4.172 2.408a.992.992 0 0 1 -.5.134z"/><path d="m42.6 31a1 1 0 0 1 -.866-1.5l2.409-4.171a1 1 0 1 1 1.732 1l-2.407 4.171a1 1 0 0 1 -.868.5z"/><path d="m44.856 17.644a1 1 0 0 1 -.985-.832c-.477-2.789-4.082-2.819-4.124-2.819a1 1 0 0 1 0-2h.007a6.814 6.814 0 0 1 5.1 2.238 6.816 6.816 0 0 1 5.1-2.238h.007a1 1 0 0 1 0 2c-.15 0-3.653.051-4.127 2.819a1 1 0 0 1 -.978.832z"/><path d="m58.206 9.057a1 1 0 0 1 -.985-.831c-.478-2.79-4.082-2.82-4.124-2.82a1 1 0 0 1 0-2h.003a6.814 6.814 0 0 1 5.1 2.238 6.813 6.813 0 0 1 5.1-2.238h.006a1 1 0 0 1 0 2c-.149 0-3.652.051-4.127 2.82a1 1 0 0 1 -.973.831z"/><path d="m64.881 22.406a1 1 0 0 1 -.985-.831c-.478-2.789-4.083-2.819-4.125-2.819a1 1 0 0 1 0-2h.006a6.812 6.812 0 0 1 5.1 2.238 6.812 6.812 0 0 1 5.1-2.238h.007a1 1 0 0 1 0 2c-.149 0-3.652.051-4.127 2.819a1 1 0 0 1 -.976.831z"/></svg>