<svg id="Icons" height="512" viewBox="0 0 74 74" width="512" xmlns="http://www.w3.org/2000/svg"><path d="m63 70.5h-8.25a1 1 0 0 1 -1-1v-4.273a1 1 0 0 1 1-1h8.25a1 1 0 0 1 1 1v4.273a1 1 0 0 1 -1 1zm-7.25-2h6.25v-2.273h-6.25z"/><path d="m19.25 70.5h-8.25a1 1 0 0 1 -1-1v-4.273a1 1 0 0 1 1-1h8.25a1 1 0 0 1 1 1v4.273a1 1 0 0 1 -1 1zm-7.25-2h6.25v-2.273h-6.25z"/><path d="m34.53 66.23h-2.97a1 1 0 0 1 0-2h2.97a1 1 0 0 1 0 2z"/><path d="m68 66.23h-16.56a1 1 0 0 1 0-2h16.56a2 2 0 0 0 2-2v-42a2 2 0 0 0 -2-2h-62a2 2 0 0 0 -2 2v42a2 2 0 0 0 2 2h18.56a1 1 0 1 1 0 2h-18.56a4 4 0 0 1 -4-4v-42a4 4 0 0 1 4-4h62a4 4 0 0 1 4 4v42a4 4 0 0 1 -4 4z"/><path d="m44.44 66.23h-2.91a1 1 0 0 1 0-2h2.91a1 1 0 0 1 0 2z"/><path d="m30.708 59.531a102.18 102.18 0 0 1 -19.672-1.918 1 1 0 0 1 -.781-.752 67.649 67.649 0 0 1 0-31.263 1 1 0 0 1 .785-.754 104.051 104.051 0 0 1 39.336 0 1 1 0 0 1 .785.754 67.622 67.622 0 0 1 0 31.263 1 1 0 0 1 -.781.752 102.18 102.18 0 0 1 -19.672 1.918zm-18.651-3.759a99.773 99.773 0 0 0 37.3 0 65.59 65.59 0 0 0 0-29.084 102.04 102.04 0 0 0 -37.3 0 65.634 65.634 0 0 0 0 29.084z"/><path d="m65.728 29.333h-8.456a1 1 0 1 1 0-2h8.456a1 1 0 0 1 0 2z"/><path d="m65.728 34.5h-8.456a1 1 0 1 1 0-2h8.456a1 1 0 0 1 0 2z"/><path d="m65.728 39.667h-8.456a1 1 0 1 1 0-2h8.456a1 1 0 0 1 0 2z"/><path d="m61.5 55.167a5.138 5.138 0 0 1 -3.921-8.457 1 1 0 1 1 1.521 1.29 3.1 3.1 0 0 0 -.741 2.028 3.137 3.137 0 0 0 6.274 0 3.1 3.1 0 0 0 -.733-2.028 1 1 0 1 1 1.525-1.292 5.138 5.138 0 0 1 -3.925 8.459z"/><path d="m61.5 50.039a1 1 0 0 1 -1-1v-4.739a1 1 0 0 1 2 0v4.736a1 1 0 0 1 -1 1.003z"/><path d="m37 18.227h-.024a.994.994 0 0 1 -.722-.334l-6-6.726a1 1 0 1 1 1.492-1.332l5.289 5.93 11.751-11.965a1 1 0 0 1 1.428 1.4l-12.5 12.726a1 1 0 0 1 -.714.301z"/></svg>