<svg id="Icons" height="512" viewBox="0 0 74 74" width="512" xmlns="http://www.w3.org/2000/svg"><path d="m49.028 67.429h-24.056a6.239 6.239 0 0 1 -3.055-.776 39.124 39.124 0 0 1 -19.917-34.043v-2.11a1 1 0 0 1 1-1h68a1 1 0 0 1 1 1v2.11a39.124 39.124 0 0 1 -19.917 34.043 6.239 6.239 0 0 1 -3.055.776zm-45.028-35.929v1.11a37.121 37.121 0 0 0 18.9 32.3 4.242 4.242 0 0 0 2.075.519h24.053a4.242 4.242 0 0 0 2.072-.519 37.121 37.121 0 0 0 18.9-32.3v-1.11z"/><path d="m49.68 39.59h-2.97a1 1 0 0 1 0-2h2.97a1 1 0 1 1 0 2z"/><path d="m29.81 39.59h-26.34a1 1 0 1 1 0-2h26.34a1 1 0 1 1 0 2z"/><path d="m39.71 39.59h-2.9a1 1 0 0 1 0-2h2.9a1 1 0 1 1 0 2z"/><path d="m70.53 39.59h-13.85a1 1 0 0 1 0-2h13.85a1 1 0 0 1 0 2z"/><path d="m58.329 31.5a1 1 0 0 1 -.915-1.4l6.527-14.911a4.711 4.711 0 0 0 -8.242-4.5l-13.511 20.36a1 1 0 1 1 -1.666-1.105l13.511-20.362a6.712 6.712 0 0 1 11.739 6.407l-6.526 14.911a1 1 0 0 1 -.917.6z"/></svg>