<svg id="Capa_1" enable-background="new 0 0 502.167 502.167" height="512" viewBox="0 0 502.167 502.167" width="512" xmlns="http://www.w3.org/2000/svg"><g><path d="m454.147 502.167h-406.145c-12.857-.032-23.253-10.481-23.221-23.338.002-.923.06-1.845.171-2.761l8.035-66.187c4.01-33.086 28.853-59.836 61.552-66.28l103.506-20.201c1.939-.378 3.948.061 5.553 1.212 31.716 22.756 63.884 22.914 98.319.474 1.559-1.023 3.457-1.394 5.287-1.033l100.356 19.57c32.647 6.514 57.462 33.19 61.603 66.222l8.049 66.215c1.561 12.762-7.519 24.373-20.281 25.934-.924.114-1.854.171-2.784.173zm-256.339-164.104-100.478 19.614c-26.606 5.246-46.818 27.012-50.081 53.934l-8.042 66.165c-.308 2.559.496 5.127 2.21 7.052 1.657 1.906 4.06 2.998 6.586 2.992h406.145c2.526.012 4.932-1.074 6.593-2.977 1.715-1.927 2.519-4.498 2.21-7.059l-8.042-66.179c-3.359-26.891-23.545-48.617-50.117-53.941l-97.494-18.982c-37.636 23.5-74.445 23.292-109.49-.619z"/><path d="m333.575 408.719h-165c-3.486 0-6.467-2.506-7.066-5.94l-11.005-62.901c-.683-3.905 1.928-7.624 5.832-8.307 3.905-.683 7.624 1.928 8.307 5.832l9.965 56.961h152.962l9.965-56.961c.683-3.905 4.403-6.516 8.307-5.832 3.905.683 6.516 4.403 5.832 8.307l-11.005 62.901c-.601 3.445-3.598 5.954-7.094 5.94z"/><path d="m391.841 502.167c-3.169 0-5.963-2.079-6.873-5.115-25.826-86.209 4.742-148.715 6.062-151.37 1.783-3.542 6.1-4.968 9.642-3.185s4.968 6.1 3.185 9.642c-.294.595-29.27 60.297-5.144 140.788 1.141 3.794-1.01 7.795-4.804 8.936-.67.202-1.367.304-2.068.304z"/><path d="m111.341 502.167c-3.962.001-7.175-3.209-7.177-7.171 0-.701.102-1.398.304-2.069 24.219-80.807-4.835-140.193-5.129-140.781-1.783-3.54-.358-7.855 3.182-9.638s7.855-.358 9.638 3.182c1.32 2.618 31.888 65.132 6.055 151.37-.913 3.032-3.706 5.108-6.873 5.107z"/><path d="m305.848 338.271c-1.841-.001-3.61-.71-4.943-1.98-12.858-14.016-19.881-32.411-19.635-51.43-.036-3.962 3.147-7.203 7.109-7.238h.001c3.919.062 7.105 3.178 7.253 7.095-.277 15.147 5.14 29.847 15.18 41.193 2.869 2.733 2.978 7.274.245 10.142-1.353 1.42-3.227 2.224-5.188 2.225z"/><path d="m199.422 337.611c-3.962.006-7.179-3.201-7.185-7.163-.003-1.985.816-3.882 2.263-5.24 9.768-10.928 15.105-25.109 14.965-39.765.086-3.9 3.273-7.017 7.174-7.016h.158c3.961.086 7.102 3.367 7.016 7.328v.003c.043 18.501-6.924 36.331-19.499 49.902-1.323 1.247-3.072 1.945-4.892 1.951z"/><path d="m251.562 299.92c-52.662-.079-95.334-42.751-95.413-95.413v-77.012c0-3.962 3.212-7.174 7.174-7.174h176.514c3.962 0 7.174 3.212 7.174 7.174v76.955c-.047 52.698-42.75 95.41-95.449 95.47zm-81.065-165.252v69.781c0 44.789 36.309 81.098 81.098 81.098s81.098-36.309 81.098-81.098v-69.781z"/><path d="m355.405 134.668h-207.678c-13.505 0-24.452-10.948-24.452-24.452s10.948-24.452 24.452-24.452h207.678c13.505 0 24.452 10.948 24.452 24.452s-10.947 24.452-24.452 24.452zm-207.678-34.557c-5.581 0-10.104 4.524-10.104 10.104 0 5.581 4.524 10.104 10.104 10.104h207.678c5.581 0 10.104-4.524 10.104-10.104 0-5.581-4.524-10.104-10.104-10.104z"/><path d="m343.267 100.111h-183.394c-3.962 0-7.174-3.212-7.174-7.174v-68.711c0-13.38 10.847-24.226 24.227-24.226 1.446 0 2.888.129 4.311.387l87.135 15.783c4.566.819 9.263.531 13.695-.839l36.953-11.478c12.783-3.966 26.36 3.181 30.326 15.964.721 2.322 1.087 4.74 1.088 7.172v66c-.028 3.938-3.228 7.119-7.167 7.122zm-176.213-14.347h169.039v-58.827c-.001-5.456-4.424-9.878-9.88-9.877-.992 0-1.978.15-2.926.444l-36.953 11.478c-6.635 2.053-13.667 2.484-20.503 1.255l-87.134-15.783c-5.369-.971-10.508 2.595-11.478 7.963-.105.58-.158 1.168-.158 1.757z"/><path d="m279.29 173.486c-3.962 0-7.174-3.212-7.174-7.174 0-2.258 1.063-4.384 2.87-5.739 11.832-8.872 28.115-8.817 39.887.136 3.03 2.553 3.417 7.078.865 10.109-2.451 2.909-6.745 3.4-9.789 1.119-6.703-4.806-15.738-4.751-22.383.136-1.237.918-2.736 1.413-4.276 1.413z"/><path d="m223.85 173.486c-1.528 0-3.016-.487-4.247-1.392-6.613-5.018-15.74-5.085-22.426-.165-3.104 2.464-7.619 1.946-10.083-1.159-2.464-3.104-1.946-7.619 1.159-10.083 11.771-8.959 28.059-9.017 39.894-.143 3.17 2.377 3.812 6.874 1.435 10.043-1.355 1.806-3.481 2.87-5.739 2.87z"/><path d="m254.992 256.022c-11.797 1.205-23.485-3.139-31.63-11.758-2.822-2.781-2.855-7.323-.074-10.145 2.708-2.748 7.106-2.862 9.953-.257 5.703 5.416 8.774 7.812 21.751 7.812 8.098 1.153 16.243-1.772 21.758-7.812 2.918-2.68 7.456-2.488 10.136.43 2.628 2.861 2.501 7.295-.287 10.001-8.189 8.535-19.832 12.856-31.607 11.729z"/></g></svg>