<svg id="Icons" height="512" viewBox="0 0 74 74" width="512" xmlns="http://www.w3.org/2000/svg"><path d="m67 72h-60a5.006 5.006 0 0 1 -5-5v-60a5.006 5.006 0 0 1 5-5h60a5.006 5.006 0 0 1 5 5v60a5.006 5.006 0 0 1 -5 5zm-60-68a3 3 0 0 0 -3 3v60a3 3 0 0 0 3 3h60a3 3 0 0 0 3-3v-60a3 3 0 0 0 -3-3z"/><path d="m63 66h-52a3 3 0 0 1 -3-3v-52a3 3 0 0 1 3-3h52a3 3 0 0 1 3 3v52a3 3 0 0 1 -3 3zm-52-56a1 1 0 0 0 -1 1v52a1 1 0 0 0 1 1h52a1 1 0 0 0 1-1v-52a1 1 0 0 0 -1-1z"/><path d="m52 33.5h-30a4 4 0 0 1 0-8h30a4 4 0 0 1 0 8zm-30-6a2 2 0 0 0 0 4h30a2 2 0 0 0 0-4z"/><path d="m52 48.5h-30a4 4 0 0 1 0-8h30a4 4 0 0 1 0 8zm-30-6a2 2 0 0 0 0 4h30a2 2 0 0 0 0-4z"/></svg>