<svg id="Icons" height="512" viewBox="0 0 74 74" width="512" xmlns="http://www.w3.org/2000/svg"><path d="m36.9 68.943h-33.9a1 1 0 0 1 -1-1v-61.886a1 1 0 0 1 1-1h33.9a1 1 0 0 1 1 1v61.886a1 1 0 0 1 -1 1zm-32.9-2h31.9v-59.886h-31.9z"/><path d="m71 68.943h-34.1a1 1 0 0 1 -1-1v-32.514a1 1 0 0 1 1-1h34.1a1 1 0 0 1 1 1v32.514a1 1 0 0 1 -1 1zm-33.1-2h32.1v-30.514h-32.1z"/><path d="m64.159 49.048h-6.971a1 1 0 0 1 -1-1v-6.971a1 1 0 0 1 1-1h6.971a1 1 0 0 1 1 1v6.971a1 1 0 0 1 -1 1zm-5.971-2h4.971v-4.971h-4.971z"/><path d="m50.714 49.048h-6.971a1 1 0 0 1 -1-1v-6.971a1 1 0 0 1 1-1h6.971a1 1 0 0 1 1 1v6.971a1 1 0 0 1 -1 1zm-5.971-2h4.971v-4.971h-4.971z"/><path d="m30.485 20.494h-6.97a1 1 0 0 1 -1-1v-6.972a1 1 0 0 1 1-1h6.971a1 1 0 0 1 1 1v6.972a1 1 0 0 1 -1.001 1zm-5.971-2h4.971v-4.972h-4.97z"/><path d="m16.313 20.494h-6.971a1 1 0 0 1 -1-1v-6.972a1 1 0 0 1 1-1h6.972a1 1 0 0 1 1 1v6.972a1 1 0 0 1 -1.001 1zm-5.972-2h4.972v-4.972h-4.971z"/><path d="m30.485 34.457h-6.97a1 1 0 0 1 -1-1v-6.972a1 1 0 0 1 1-1h6.971a1 1 0 0 1 1 1v6.972a1 1 0 0 1 -1.001 1zm-5.971-2h4.971v-4.972h-4.97z"/><path d="m16.313 34.457h-6.971a1 1 0 0 1 -1-1v-6.972a1 1 0 0 1 1-1h6.972a1 1 0 0 1 1 1v6.972a1 1 0 0 1 -1.001 1zm-5.972-2h4.972v-4.972h-4.971z"/><path d="m30.485 48.419h-6.97a1 1 0 0 1 -1-1v-6.972a1 1 0 0 1 1-1h6.971a1 1 0 0 1 1 1v6.972a1 1 0 0 1 -1.001 1zm-5.971-2h4.971v-4.972h-4.97z"/><path d="m16.313 48.419h-6.971a1 1 0 0 1 -1-1v-6.972a1 1 0 0 1 1-1h6.972a1 1 0 0 1 1 1v6.972a1 1 0 0 1 -1.001 1zm-5.972-2h4.972v-4.972h-4.971z"/><path d="m64.159 63.391h-6.971a1 1 0 0 1 -1-1v-6.972a1 1 0 0 1 1-1h6.971a1 1 0 0 1 1 1v6.972a1 1 0 0 1 -1 1zm-5.971-2h4.971v-4.972h-4.971z"/><path d="m50.714 63.391h-6.971a1 1 0 0 1 -1-1v-6.972a1 1 0 0 1 1-1h6.971a1 1 0 0 1 1 1v6.972a1 1 0 0 1 -1 1zm-5.971-2h4.971v-4.972h-4.971z"/><path d="m26.966 68.943h-14.029a1 1 0 0 1 -1-1v-14.028a1 1 0 0 1 1-1h14.029a1 1 0 0 1 1 1v14.028a1 1 0 0 1 -1 1zm-13.029-2h12.029v-12.028h-12.029z"/></svg>