<svg id="Icons" height="512" viewBox="0 0 74 74" width="512" xmlns="http://www.w3.org/2000/svg"><path d="m62.342 70.305h-50.684a1 1 0 0 1 -1-1v-34.346a1 1 0 0 1 2 0v33.346h48.684v-33.346a1 1 0 0 1 2 0v34.346a1 1 0 0 1 -1 1z"/><path d="m67.834 39.714a4.167 4.167 0 0 1 -2.73-1.021l-28.104-25.293-28.091 25.282a4.164 4.164 0 0 1 -6.9-3.423 4.134 4.134 0 0 1 1.422-2.853l30.825-27.68a4.191 4.191 0 0 1 5.476-.011l30.848 27.7a4.165 4.165 0 0 1 .4 5.865 4.165 4.165 0 0 1 -3.146 1.434zm-30.834-29.007 29.429 26.493a2.238 2.238 0 0 0 3.04-.226 2.165 2.165 0 0 0 -.214-3.054l-30.847-27.706a2.172 2.172 0 0 0 -2.829.011l-30.822 27.675a2.165 2.165 0 1 0 2.828 3.278z"/><path d="m46.21 70.305h-18.42a1 1 0 0 1 -1-1v-22.819a2.246 2.246 0 0 1 2.243-2.244h15.934a2.246 2.246 0 0 1 2.243 2.244v22.819a1 1 0 0 1 -1 1zm-17.42-2h16.42v-21.819a.244.244 0 0 0 -.243-.244h-15.934a.244.244 0 0 0 -.243.244z"/><path d="m42.113 59.878a1 1 0 0 1 -1-1v-3.208a1 1 0 0 1 2 0v3.208a1 1 0 0 1 -1 1z"/><path d="m11.242 27.738a1 1 0 0 1 -1-1v-19.988a1 1 0 0 1 1-1h12.364a1 1 0 0 1 1 1v8.891a1 1 0 0 1 -2 0v-7.891h-10.364v18.988a1 1 0 0 1 -1 1z"/></svg>