<?xml version="1.0"?>
<svg xmlns="http://www.w3.org/2000/svg" viewBox="0 0 74 74" width="512" height="512"><g id="Numbers"><text transform="translate(37.995 -266.544)" font-size="18" fill="red" font-family="ArialMT, Arial">2<tspan x="-5.005" y="124">12</tspan><tspan x="-5.005" y="248">22</tspan><tspan x="-5.005" y="372">32</tspan><tspan x="-5.005" y="496">42</tspan><tspan x="-5.005" y="620">52</tspan><tspan x="-5.005" y="744">62</tspan><tspan x="-5.005" y="868">72</tspan><tspan x="-5.005" y="992">82</tspan><tspan x="-5.005" y="1116">92</tspan><tspan x="-10.011" y="1240">102</tspan><tspan x="-9.343" y="1364" letter-spacing="-0.074em">1</tspan><tspan x="-0.668" y="1364">12</tspan><tspan x="-10.011" y="1488">122</tspan><tspan x="-10.011" y="1612">132</tspan><tspan x="-10.011" y="1736">142</tspan><tspan x="-10.011" y="1860">152</tspan><tspan x="-10.011" y="1984">162</tspan><tspan x="-10.011" y="2108">172</tspan><tspan x="-10.011" y="2232">182</tspan><tspan x="-10.011" y="2356">192</tspan><tspan x="-10.011" y="2480">202</tspan><tspan x="-10.011" y="2604">212</tspan><tspan x="-10.011" y="2728">222</tspan><tspan x="-10.011" y="2852">232</tspan><tspan x="-10.011" y="2976">242</tspan><tspan x="-10.011" y="3100">252</tspan><tspan x="-10.011" y="3224">262</tspan><tspan x="-10.011" y="3348">272</tspan><tspan x="-10.011" y="3472">282</tspan><tspan x="-10.011" y="3596">292</tspan></text></g><g id="Icons"><path d="M13,24a8,8,0,1,1,8-8A8.009,8.009,0,0,1,13,24Zm0-14a6,6,0,1,0,6,6A6.007,6.007,0,0,0,13,10Z"/><path d="M23,66H3a1,1,0,0,1-1-1V59a1,1,0,0,1,1-1H23a1,1,0,0,1,1,1v6A1,1,0,0,1,23,66ZM4,64H22V60H4Z"/><path d="M16,60H10a1,1,0,0,1-1-1V22.32h2V58h4V22.32h2V59A1,1,0,0,1,16,60Z"/><path d="M61,24a8,8,0,1,1,8-8A8.009,8.009,0,0,1,61,24Zm0-14a6,6,0,1,0,6,6A6.007,6.007,0,0,0,61,10Z"/><path d="M71,66H51a1,1,0,0,1-1-1V59a1,1,0,0,1,1-1H71a1,1,0,0,1,1,1v6A1,1,0,0,1,71,66ZM52,64H70V60H52Z"/><path d="M64,60H58a1,1,0,0,1-1-1V22.32h2V58h4V22.32h2V59A1,1,0,0,1,64,60Z"/><path d="M37,30.886a78.061,78.061,0,0,1-21.273-2.924l.547-1.924a76.815,76.815,0,0,0,41.453,0l.547,1.924A78.061,78.061,0,0,1,37,30.886Z"/><path d="M37,36.886a78.061,78.061,0,0,1-21.273-2.924l.547-1.924a76.815,76.815,0,0,0,41.453,0l.547,1.924A78.061,78.061,0,0,1,37,36.886Z"/></g></svg>
