<?xml version="1.0"?>
<svg xmlns="http://www.w3.org/2000/svg" id="Icons" viewBox="0 0 74 74" width="512" height="512"><path d="M71,72H3a1,1,0,0,1-1-1V3a1,1,0,0,1,1.707-.707l68,68A1,1,0,0,1,71,72ZM4,70H68.586L4,5.414Z"/><path d="M44.443,61H14a1,1,0,0,1-1-1V29.556a1,1,0,0,1,1.707-.707L45.15,59.293A1,1,0,0,1,44.443,61ZM15,59H42.029L15,31.97Z"/><path d="M12.667,72a1,1,0,0,1-1-1V68a1,1,0,0,1,2,0v3A1,1,0,0,1,12.667,72Z"/><path d="M20.5,72a1,1,0,0,1-1-1V66.583a1,1,0,0,1,2,0V71A1,1,0,0,1,20.5,72Z"/><path d="M28.333,72a1,1,0,0,1-1-1V68a1,1,0,0,1,2,0v3A1,1,0,0,1,28.333,72Z"/><path d="M36.167,72a1,1,0,0,1-1-1V66.583a1,1,0,0,1,2,0V71A1,1,0,0,1,36.167,72Z"/><path d="M44,72a1,1,0,0,1-1-1V68a1,1,0,0,1,2,0v3A1,1,0,0,1,44,72Z"/><path d="M51.833,72a1,1,0,0,1-1-1V66.583a1,1,0,0,1,2,0V71A1,1,0,0,1,51.833,72Z"/><path d="M6,60.583H3a1,1,0,0,1,0-2H6a1,1,0,0,1,0,2Z"/><path d="M7.417,52.75H3a1,1,0,0,1,0-2H7.417a1,1,0,1,1,0,2Z"/><path d="M6,44.917H3a1,1,0,0,1,0-2H6a1,1,0,0,1,0,2Z"/><path d="M7.417,37.083H3a1,1,0,0,1,0-2H7.417a1,1,0,1,1,0,2Z"/><path d="M6,29.25H3a1,1,0,0,1,0-2H6a1,1,0,0,1,0,2Z"/><path d="M7.417,21.417H3a1,1,0,0,1,0-2H7.417a1,1,0,0,1,0,2Z"/><path d="M56.323,43.894a1,1,0,0,1-.707-.293l-30-30h0a2.73,2.73,0,0,1,0-3.863l6.122-6.122a2.737,2.737,0,0,1,3.863,0l30,30a1,1,0,0,1,0,1.414L57.03,43.6A1,1,0,0,1,56.323,43.894ZM33.671,4.817a.728.728,0,0,0-.518.214l-6.122,6.122a.73.73,0,0,0,0,1.034h0L56.323,41.48l7.156-7.157L34.188,5.031A.73.73,0,0,0,33.671,4.817Z"/><path d="M69.792,48.792a1,1,0,0,1-.342-.06l-13.469-4.9a1,1,0,0,1-.365-1.647l8.57-8.571a1,1,0,0,1,1.646.365l4.9,13.469a1,1,0,0,1-.939,1.342Zm-11.651-6.3L68.12,46.12,64.49,36.14Z"/><path d="M33.671,21.242a1,1,0,0,1-.707-1.707l8.571-8.571a1,1,0,0,1,1.414,1.414l-8.571,8.571A1,1,0,0,1,33.671,21.242Z"/><path d="M60.608,39.608a1,1,0,0,1-.707-.293L37.249,16.664a1,1,0,0,1,1.414-1.414L61.315,37.9a1,1,0,0,1-.707,1.707Z"/></svg>
