<svg height="512" viewBox="0 0 74 74" width="512" xmlns="http://www.w3.org/2000/svg"><g id="Numbers"><text fill="rgb(0,0,0)" font-family="ArialMT, Arial" font-size="18" transform="translate(31.994 -266.544)">7<tspan x="-5.005" y="124">17</tspan><tspan x="-5.005" y="248">27</tspan><tspan x="-5.005" y="372">37</tspan><tspan x="-5.005" y="496">47</tspan><tspan x="-5.005" y="620">57</tspan><tspan x="-5.005" y="744">67</tspan><tspan x="-5.005" y="868">77</tspan><tspan x="-5.005" y="992">87</tspan><tspan x="-5.005" y="1116">97</tspan><tspan x="-10.011" y="1240">107</tspan><tspan letter-spacing="-.074em" x="-9.343" y="1364">1</tspan><tspan x="-.668" y="1364">17</tspan><tspan x="-10.011" y="1488">127</tspan><tspan x="-10.011" y="1612">137</tspan><tspan x="-10.011" y="1736">147</tspan><tspan x="-10.011" y="1860">157</tspan><tspan x="-10.011" y="1984">167</tspan><tspan x="-10.011" y="2108">177</tspan><tspan x="-10.011" y="2232">187</tspan><tspan x="-10.011" y="2356">197</tspan><tspan x="-10.011" y="2480">207</tspan><tspan x="-10.011" y="2604">217</tspan><tspan x="-10.011" y="2728">227</tspan><tspan x="-10.011" y="2852">237</tspan><tspan x="-10.011" y="2976">247</tspan><tspan x="-10.011" y="3100">257</tspan><tspan x="-10.011" y="3224">267</tspan><tspan x="-10.011" y="3348">277</tspan><tspan x="-10.011" y="3472">287</tspan><tspan x="-10.011" y="3596">297</tspan></text></g><g id="_2_PT" data-name="2 PT"><path d="m71 35h-68a1 1 0 0 1 -1-1v-25a1 1 0 0 1 1-1h68a1 1 0 0 1 1 1v25a1 1 0 0 1 -1 1zm-67-2h66v-23h-66z"/><path d="m14 66h-6a1 1 0 0 1 -1-1v-31a1 1 0 0 1 1-1h6a1 1 0 0 1 1 1v31a1 1 0 0 1 -1 1zm-5-2h4v-29h-4z"/><path d="m5 64h12v2h-12z"/><path d="m66 66h-6a1 1 0 0 1 -1-1v-31a1 1 0 0 1 1-1h6a1 1 0 0 1 1 1v31a1 1 0 0 1 -1 1zm-5-2h4v-29h-4z"/><path d="m57 64h12v2h-12z"/><path d="m49.979 23.145h25.641v2h-25.641z" transform="matrix(.64 -.769 .769 .64 4.068 56.969)"/><path d="m34.742 20.5h32.516v2h-32.516z" transform="matrix(.64 -.769 .769 .64 1.85 46.946)"/><path d="m20.742 20.5h32.516v2h-32.516z" transform="matrix(.64 -.769 .769 .64 -3.194 36.185)"/><path d="m6.742 20.5h32.516v2h-32.516z" transform="matrix(.64 -.769 .769 .64 -8.239 25.425)"/><path d="m-1.62 17.855h25.641v2h-25.641z" transform="matrix(.64 -.769 .769 .64 -10.457 15.402)"/></g></svg>