<svg id="Icons" height="512" viewBox="0 0 74 74" width="512" xmlns="http://www.w3.org/2000/svg"><path d="m71 51h-68a1 1 0 0 1 -1-1v-11a1 1 0 0 1 1-1h68a1 1 0 0 1 1 1v11a1 1 0 0 1 -1 1zm-67-2h66v-9h-66z"/><path d="m50 25h-26v-22.452h2v20.452h22v-20.452h2z"/><path d="m43.292 71.795c-.045-.034-4.428-3.477-.366-8.895a5.1 5.1 0 0 0 1.252-3.755 3.9 3.9 0 0 0 -1.343-2.345l1.188-1.6a5.919 5.919 0 0 1 2.134 3.659 7 7 0 0 1 -1.63 5.245c-2.886 3.85-.14 6.015-.022 6.105z"/><path d="m29.869 71.795c-.045-.034-4.427-3.477-.366-8.895a5.1 5.1 0 0 0 1.252-3.755 3.9 3.9 0 0 0 -1.342-2.34l1.187-1.605a5.92 5.92 0 0 1 2.133 3.659 7 7 0 0 1 -1.633 5.241c-2.8 3.74-.31 5.878-.016 6.11z"/><path d="m56.714 71.795c-.045-.034-4.428-3.477-.366-8.895a5.1 5.1 0 0 0 1.252-3.754 3.905 3.905 0 0 0 -1.342-2.346l1.187-1.6a5.917 5.917 0 0 1 2.133 3.659 7 7 0 0 1 -1.63 5.245c-2.886 3.85-.14 6.015-.022 6.105z"/><path d="m16.447 71.795c-.045-.034-4.428-3.477-.366-8.895a5.1 5.1 0 0 0 1.252-3.755 3.9 3.9 0 0 0 -1.342-2.345l1.188-1.6a5.919 5.919 0 0 1 2.134 3.659 7 7 0 0 1 -1.63 5.245c-2.886 3.85-.14 6.015-.022 6.105z"/><path d="m59 18.186h2v26.627h-2z" transform="matrix(.563 -.826 .826 .563 .174 63.329)"/><path d="m.686 30.5h26.627v2h-26.627z" transform="matrix(.826 -.563 .563 .826 -15.315 13.365)"/><path d="m63 42h2v5h-2z"/><path d="m56 42h2v5h-2z"/><path d="m49 42h2v5h-2z"/></svg>