<?xml version="1.0"?>
<svg xmlns="http://www.w3.org/2000/svg" id="Icons" viewBox="0 0 74 74" width="512" height="512"><path d="M64,72H44a3,3,0,0,1-3-3V5a3,3,0,0,1,3-3H64a3,3,0,0,1,3,3V69A3,3,0,0,1,64,72ZM44,4a1,1,0,0,0-1,1V69a1,1,0,0,0,1,1H64a1,1,0,0,0,1-1V5a1,1,0,0,0-1-1Z"/><path d="M60.542,17H47.458a1,1,0,0,1,0-2H60.542a1,1,0,0,1,0,2Z"/><path d="M60.542,23H47.458a1,1,0,0,1,0-2H60.542a1,1,0,0,1,0,2Z"/><path d="M60.542,29H47.458a1,1,0,0,1,0-2H60.542a1,1,0,0,1,0,2Z"/><path d="M54,61.688A6.688,6.688,0,1,1,60.688,55,6.7,6.7,0,0,1,54,61.688Zm0-11.375A4.688,4.688,0,1,0,58.688,55,4.693,4.693,0,0,0,54,50.313Z"/><path d="M30,72H10a3,3,0,0,1-3-3V5a3,3,0,0,1,3-3H30a3,3,0,0,1,3,3V69A3,3,0,0,1,30,72ZM10,4A1,1,0,0,0,9,5V69a1,1,0,0,0,1,1H30a1,1,0,0,0,1-1V5a1,1,0,0,0-1-1Z"/><path d="M26.542,17H13.458a1,1,0,0,1,0-2H26.542a1,1,0,1,1,0,2Z"/><path d="M26.542,23H13.458a1,1,0,1,1,0-2H26.542a1,1,0,1,1,0,2Z"/><path d="M26.542,29H13.458a1,1,0,1,1,0-2H26.542a1,1,0,1,1,0,2Z"/><path d="M20,61.688A6.688,6.688,0,1,1,26.688,55,6.7,6.7,0,0,1,20,61.688Zm0-11.375A4.688,4.688,0,1,0,24.688,55,4.693,4.693,0,0,0,20,50.313Z"/></svg>
