<svg id="Icons" height="512" viewBox="0 0 74 74" width="512" xmlns="http://www.w3.org/2000/svg"><path d="m47.08 17.77h-2.91a1 1 0 0 1 0-2h2.91a1 1 0 0 1 0 2z"/><path d="m67.44 45.84h-60.88a1.994 1.994 0 0 1 -1.913-1.388 50.847 50.847 0 0 1 -2.139-9.514 72.218 72.218 0 0 1 .038-17.392 2.012 2.012 0 0 1 1.994-1.776h22.66a1 1 0 0 1 0 2h-22.66a69.853 69.853 0 0 0 -.048 16.911 48.784 48.784 0 0 0 2.057 9.153l60.891.006a48.121 48.121 0 0 0 2.068-9.157 70.126 70.126 0 0 0 -.042-16.909h-15.386a1 1 0 0 1 0-2h15.38a2.01 2.01 0 0 1 1.993 1.771 72.219 72.219 0 0 1 .039 17.4 50.911 50.911 0 0 1 -2.143 9.526 1.99 1.99 0 0 1 -1.909 1.369z"/><path d="m37.17 17.77h-2.97a1 1 0 0 1 0-2h2.97a1 1 0 0 1 0 2z"/><path d="m59.886 45.839h-45.772a1 1 0 0 1 -.809-.413 7.569 7.569 0 0 1 -1.3-5.413 1 1 0 0 1 .995-.893h48a1 1 0 0 1 1 .909 7.847 7.847 0 0 1 -1.3 5.387 1 1 0 0 1 -.814.423zm-45.232-2h44.684a5.584 5.584 0 0 0 .7-2.719h-46.09a5.333 5.333 0 0 0 .706 2.719z"/><path d="m70.5 35.807h-67a1 1 0 0 1 0-2h67a1 1 0 0 1 0 2z"/><path d="m46.251 58.224a1 1 0 0 1 -.842-.458 42.4 42.4 0 0 1 -3.347-6.989 1 1 0 0 1 1.876-.691 41.132 41.132 0 0 0 3.153 6.6 1 1 0 0 1 -.84 1.541z"/><path d="m55.126 58.224a1 1 0 0 1 -.842-.458 42.4 42.4 0 0 1 -3.347-6.989 1 1 0 0 1 1.876-.691 41.132 41.132 0 0 0 3.153 6.6 1 1 0 0 1 -.84 1.541z"/><path d="m27.749 58.224a1 1 0 0 1 -.84-1.541 41.2 41.2 0 0 0 3.153-6.6 1 1 0 1 1 1.876.69 42.4 42.4 0 0 1 -3.347 6.989 1 1 0 0 1 -.842.462z"/><path d="m18.874 58.224a1 1 0 0 1 -.84-1.541 41.2 41.2 0 0 0 3.153-6.6 1 1 0 1 1 1.876.69 42.4 42.4 0 0 1 -3.347 6.989 1 1 0 0 1 -.842.462z"/></svg>