<svg id="Icons" height="512" viewBox="0 0 74 74" width="512" xmlns="http://www.w3.org/2000/svg"><path d="m71.007 72h-68.014a1 1 0 0 1 -1-1v-39.745a1 1 0 0 1 1.6-.8l11.078 8.232v-7.43a1 1 0 0 1 1.6-.8l10.842 8.205v-7.824a1 1 0 0 1 1.554-.838l13.246 8.8v-7.97a1 1 0 0 1 1.414-.91l28.093 12.78a1 1 0 0 1 .586.91v27.39a1 1 0 0 1 -.999 1zm-67.014-2h66.014v-25.75l-26.094-11.859v8.283a1 1 0 0 1 -1.554.833l-13.246-8.807v7.97a1 1 0 0 1 -1.6.8l-10.846-8.204v7.408a1 1 0 0 1 -1.6.8l-11.074-8.23z"/><path d="m60.441 72h-13.782a1 1 0 0 1 -1-1v-20.254a1 1 0 0 1 1-1h13.782a1 1 0 0 1 1 1v20.254a1 1 0 0 1 -1 1zm-12.782-2h11.782v-18.254h-11.782z"/><path d="m36.913 61.855h-24.6a1 1 0 0 1 -1-1v-9.936a1 1 0 0 1 1-1h24.6a1 1 0 0 1 1 1v9.936a1 1 0 0 1 -1 1zm-23.6-2h22.6v-7.936h-22.6z"/><path d="m68.476 43.462a1 1 0 0 1 -.993-.894l-4.109-38.568h-8.319l-4.087 30.188a1 1 0 0 1 -1.981-.269l4.2-31.053a1 1 0 0 1 .995-.866h10.09a1 1 0 0 1 .994.894l4.2 39.462a1 1 0 0 1 -1 1.106z"/></svg>