<svg id="Icons" height="512" viewBox="0 0 74 74" width="512" xmlns="http://www.w3.org/2000/svg"><path d="m3 52.91a1 1 0 0 1 -1-1v-1.91a1 1 0 0 1 2 0v1.91a1 1 0 0 1 -1 1z"/><path d="m68 72h-62a4 4 0 0 1 -4-4v-3.13a1 1 0 1 1 2 0v3.13a2 2 0 0 0 2 2h62a2 2 0 0 0 2-2v-62a2 2 0 0 0 -2-2h-62a2 2 0 0 0 -2 2v37a1 1 0 0 1 -2 0v-37a4 4 0 0 1 4-4h62a4 4 0 0 1 4 4v62a4 4 0 0 1 -4 4z"/><path d="m3 60.87a1 1 0 0 1 -1-1v-1.96a1 1 0 0 1 2 0v1.96a1 1 0 0 1 -1 1z"/><path d="m37 50.29a1 1 0 0 1 -1-1v-24.58a1 1 0 0 1 2 0v24.58a1 1 0 0 1 -1 1z"/><path d="m37 72a1 1 0 0 1 -1-1v-13.29a1 1 0 0 1 2 0v13.29a1 1 0 0 1 -1 1z"/><path d="m37 17.29a1 1 0 0 1 -1-1v-13.29a1 1 0 0 1 2 0v13.29a1 1 0 0 1 -1 1z"/><path d="m49.29 38h-24.58a1 1 0 0 1 0-2h24.58a1 1 0 0 1 0 2z"/><path d="m16.29 38h-13.29a1 1 0 0 1 0-2h13.29a1 1 0 0 1 0 2z"/><path d="m71 38h-13.29a1 1 0 0 1 0-2h13.29a1 1 0 0 1 0 2z"/><path d="m57.71 38a1 1 0 0 1 -.7-1.713 4.945 4.945 0 0 0 1.49-3.557 5 5 0 0 0 -10 0 4.945 4.945 0 0 0 1.491 3.557 1 1 0 0 1 -1.4 1.426 6.929 6.929 0 0 1 -2.091-4.983 7 7 0 0 1 14 0 6.929 6.929 0 0 1 -2.089 4.983 1 1 0 0 1 -.701.287z"/><path d="m20.5 48.27a7.008 7.008 0 0 1 -7-7 6.929 6.929 0 0 1 2.089-4.983 1 1 0 0 1 1.4 1.426 4.945 4.945 0 0 0 -1.489 3.557 5 5 0 0 0 10 0 4.945 4.945 0 0 0 -1.491-3.557 1 1 0 1 1 1.4-1.426 6.929 6.929 0 0 1 2.091 4.983 7.008 7.008 0 0 1 -7 7z"/><path d="m41.27 60.5a6.929 6.929 0 0 1 -4.983-2.089 1 1 0 1 1 1.426-1.4 4.945 4.945 0 0 0 3.557 1.489 5 5 0 1 0 0-10 4.945 4.945 0 0 0 -3.557 1.491 1 1 0 1 1 -1.426-1.4 6.929 6.929 0 0 1 4.983-2.091 7 7 0 1 1 0 14z"/><path d="m32.73 27.5a7 7 0 1 1 0-14 6.929 6.929 0 0 1 4.983 2.089 1 1 0 0 1 -1.426 1.4 4.945 4.945 0 0 0 -3.557-1.489 5 5 0 1 0 0 10 4.945 4.945 0 0 0 3.557-1.491 1 1 0 0 1 1.426 1.4 6.929 6.929 0 0 1 -4.983 2.091z"/></svg>