<?xml version="1.0"?>
<svg xmlns="http://www.w3.org/2000/svg" viewBox="0 0 74 74" width="512" height="512"><g id="Numbers"><text transform="translate(31.994 -638.544)" font-size="18" fill="red" font-family="ArialMT, Arial">7<tspan x="-5.005" y="124">17</tspan><tspan x="-5.005" y="248">27</tspan><tspan x="-5.005" y="372">37</tspan><tspan x="-5.005" y="496">47</tspan><tspan x="-5.005" y="620">57</tspan><tspan x="-5.005" y="744">67</tspan><tspan x="-5.005" y="868">77</tspan><tspan x="-5.005" y="992">87</tspan><tspan x="-5.005" y="1116">97</tspan><tspan x="-10.011" y="1240">107</tspan><tspan x="-9.343" y="1364" letter-spacing="-0.074em">1</tspan><tspan x="-0.668" y="1364">17</tspan><tspan x="-10.011" y="1488">127</tspan><tspan x="-10.011" y="1612">137</tspan><tspan x="-10.011" y="1736">147</tspan><tspan x="-10.011" y="1860">157</tspan><tspan x="-10.011" y="1984">167</tspan><tspan x="-10.011" y="2108">177</tspan><tspan x="-10.011" y="2232">187</tspan><tspan x="-10.011" y="2356">197</tspan><tspan x="-10.011" y="2480">207</tspan><tspan x="-10.011" y="2604">217</tspan><tspan x="-10.011" y="2728">227</tspan><tspan x="-10.011" y="2852">237</tspan><tspan x="-10.011" y="2976">247</tspan><tspan x="-10.011" y="3100">257</tspan><tspan x="-10.011" y="3224">267</tspan><tspan x="-10.011" y="3348">277</tspan><tspan x="-10.011" y="3472">287</tspan><tspan x="-10.011" y="3596">297</tspan></text></g><g id="Icons"><path d="M37,64.928a1.009,1.009,0,0,1-.386-.077l-34-14.2a1,1,0,0,1,0-1.846l15.231-6.364.771,1.846L5.6,49.729,37,62.844,68.4,49.729,55.381,44.288l.771-1.846,15.231,6.364a1,1,0,0,1,0,1.846l-34,14.2A1.009,1.009,0,0,1,37,64.928Z"/><path d="M37,52.2a1.009,1.009,0,0,1-.386-.077l-34-14.2a1,1,0,0,1,0-1.846l15.231-6.364.771,1.846L5.6,37,37,50.116,68.4,37,55.381,31.56l.771-1.846,15.231,6.364a1,1,0,0,1,0,1.846l-34,14.2A1.009,1.009,0,0,1,37,52.2Z"/><path d="M37,39.474a1.009,1.009,0,0,1-.386-.077l-34-14.2a1,1,0,0,1,0-1.846l34-14.2a1.006,1.006,0,0,1,.771,0l34,14.2a1,1,0,0,1,0,1.846l-34,14.2A1.009,1.009,0,0,1,37,39.474ZM5.595,24.273,37,37.391,68.405,24.273,37,11.156Z"/></g></svg>
