<svg xmlns="http://www.w3.org/2000/svg" width="22.337" height="16.754" viewBox="0 0 22.337 16.754"><path d="M22.184,6.4,19.406,1.674a1.123,1.123,0,0,0-1.518-.4L15.479,2.637l2.084,3.549a.271.271,0,0,1-.1.373l-.482.272a.279.279,0,0,1-.38-.1L14.516,3.185,12.59,4.277l.974,1.654a.271.271,0,0,1-.1.373l-.482.272a.279.279,0,0,1-.38-.1l-.974-1.651L9.7,5.918l2.087,3.549a.272.272,0,0,1-.1.373l-.482.272a.279.279,0,0,1-.38-.1L8.74,6.462,6.814,7.554l.974,1.654a.271.271,0,0,1-.1.373L7.2,9.854a.279.279,0,0,1-.38-.1L5.851,8.1,3.924,9.188l2.084,3.549a.272.272,0,0,1-.1.373l-.482.272a.279.279,0,0,1-.38-.1L2.961,9.743.553,11.107A1.085,1.085,0,0,0,.145,12.6l2.778,4.732a1.123,1.123,0,0,0,1.518.4L21.779,7.9A1.084,1.084,0,0,0,22.184,6.4Z" transform="translate(0.004 -1.127)" fill="#4b4b4b"/></svg>