<svg xmlns="http://www.w3.org/2000/svg" width="20.765" height="16.148" viewBox="0 0 20.765 16.148"><path d="M10.106,6.443,3.46,11.917v5.908a.577.577,0,0,0,.577.577l4.04-.01a.577.577,0,0,0,.574-.577v-3.45a.577.577,0,0,1,.577-.577h2.307a.577.577,0,0,1,.577.577v3.448a.577.577,0,0,0,.577.579l4.038.011a.577.577,0,0,0,.577-.577V11.913l-6.645-5.47A.439.439,0,0,0,10.106,6.443Zm10.5,3.721L17.591,7.679V2.686a.433.433,0,0,0-.433-.433H15.14a.433.433,0,0,0-.433.433V5.3L11.48,2.648a1.73,1.73,0,0,0-2.2,0L.156,10.163a.433.433,0,0,0-.058.609l.919,1.117a.433.433,0,0,0,.61.059l8.479-6.984a.439.439,0,0,1,.552,0l8.48,6.984a.433.433,0,0,0,.609-.058l.919-1.117a.433.433,0,0,0-.061-.61Z" transform="translate(0.001 -2.254)" fill="#fff"/></svg>