<svg xmlns="http://www.w3.org/2000/svg" width="15.972" height="18.254" viewBox="0 0 15.972 18.254"><path d="M15.544,17.113h-.713V.856A.856.856,0,0,0,13.975,0H2a.856.856,0,0,0-.856.856V17.113H.428A.428.428,0,0,0,0,17.541v.713H15.972v-.713A.428.428,0,0,0,15.544,17.113ZM4.563,2.71a.428.428,0,0,1,.428-.428H6.417a.428.428,0,0,1,.428.428V4.136a.428.428,0,0,1-.428.428H4.991a.428.428,0,0,1-.428-.428Zm0,3.423A.428.428,0,0,1,4.991,5.7H6.417a.428.428,0,0,1,.428.428V7.558a.428.428,0,0,1-.428.428H4.991a.428.428,0,0,1-.428-.428Zm1.854,5.276H4.991a.428.428,0,0,1-.428-.428V9.555a.428.428,0,0,1,.428-.428H6.417a.428.428,0,0,1,.428.428v1.426A.428.428,0,0,1,6.417,11.408Zm2.71,5.7H6.845V14.118a.428.428,0,0,1,.428-.428H8.7a.428.428,0,0,1,.428.428Zm2.282-6.132a.428.428,0,0,1-.428.428H9.555a.428.428,0,0,1-.428-.428V9.555a.428.428,0,0,1,.428-.428h1.426a.428.428,0,0,1,.428.428Zm0-3.423a.428.428,0,0,1-.428.428H9.555a.428.428,0,0,1-.428-.428V6.132A.428.428,0,0,1,9.555,5.7h1.426a.428.428,0,0,1,.428.428Zm0-3.423a.428.428,0,0,1-.428.428H9.555a.428.428,0,0,1-.428-.428V2.71a.428.428,0,0,1,.428-.428h1.426a.428.428,0,0,1,.428.428Z" fill="#4b4b4b"/></svg>