<?xml version="1.0" encoding="utf-8"?>
<!-- Generator: Adobe Illustrator 25.0.0, SVG Export Plug-In . SVG Version: 6.00 Build 0)  -->
<svg version="1.1" id="Capa_1" xmlns="http://www.w3.org/2000/svg" xmlns:xlink="http://www.w3.org/1999/xlink" x="0px" y="0px"
	 viewBox="0 0 509.9 509.9" style="enable-background:new 0 0 509.9 509.9;" xml:space="preserve">
<g>
	<g>
		<path style="stroke:#4B4B4B;fill:#4B4B4B" class="st0" d="M478.8,222.9H74.6V61.6c-3-11,6.4-20.7,17.1-20h31c7.5-0.7,9.5,9,10,19.1c-11.9,8.5-26.2,35.8-26.2,35.8v30.5
			c0,5.9,4.8,10.7,10.7,10.7h74.5c5.9,0,10.7-4.8,10.7-10.7V98.4c0-20.6-16.3-39.5-36.3-44.6c0-24.4-19.7-44.2-44.1-44.2H88.1
			c-24.7,0-45.5,20.3-45.5,44.2v169.2h-9.7C14.4,222.9,0,241.7,0,265.6c0,18.6,8.8,33.9,21.3,39.9v29c0,43.4,18.9,80.7,49.5,104.8
			l-17.1,34.9l-12.8,26.1h28.6l2.9-5.9l20.3-41.4c19.9,10.1,42,15.4,64.4,15.3h208.9c18.6,0,36.9-3.7,54.1-10.8l18.1,36.9l2.9,5.9
			h28.6c0.1-1.6-0.3-3.2-1-4.6l-10.1-20.5l-16.4-33.6c29.4-23.2,47.7-59.1,47.7-100.9v-38.2c11.8-5.7,20.1-20.5,20.1-38.4
			C509.9,241,496.2,222.9,478.8,222.9z M42.6,276.3H31.9v-32h10.7V276.3z M479.1,255.6v9.4v11.3H74.5v-32h404.6L479.1,255.6z"/>
	</g>
</g>
</svg>
