<svg xmlns="http://www.w3.org/2000/svg" width="2770.835" height="2770.216" viewBox="0 0 2770.835 2770.216"><path d="M1385.721,677.1c-393.14,0-710.248,317.108-710.248,710.249s317.108,710.249,710.248,710.249,710.249-317.108,710.249-710.249S1778.861,677.1,1385.721,677.1Zm0,1172c-254.058,0-461.754-207.078-461.754-461.754s207.078-461.754,461.754-461.754,461.754,207.079,461.754,461.754-207.7,461.754-461.754,461.754ZM2290.686,648.045a165.663,165.663,0,1,1-165.663-165.663A165.278,165.278,0,0,1,2290.686,648.045ZM2761.094,816.18c-10.509-221.914-61.2-418.484-223.769-580.438C2375.371,73.788,2178.8,23.1,1956.887,11.973c-228.714-12.981-914.236-12.981-1142.95,0-221.3,10.508-417.866,61.2-580.438,223.15S20.857,593.648,9.731,815.562c-12.981,228.714-12.981,914.237,0,1142.95C20.239,2180.426,70.927,2377,233.5,2538.95s358.524,212.642,580.438,223.768c228.714,12.981,914.236,12.981,1142.95,0,221.914-10.508,418.484-61.2,580.438-223.768,161.954-161.954,212.642-358.524,223.769-580.438,12.981-228.714,12.981-913.618,0-1142.332ZM2465.62,2203.916c-48.215,121.156-141.555,214.5-263.33,263.33-182.353,72.323-615.054,55.633-816.57,55.633s-634.835,16.072-816.569-55.633c-121.156-48.215-214.5-141.555-263.33-263.33-72.323-182.353-55.633-615.054-55.633-816.569s-16.072-634.835,55.633-816.57c48.215-121.156,141.555-214.5,263.33-263.33,182.353-72.323,615.054-55.633,816.569-55.633s634.835-16.072,816.57,55.633c121.156,48.215,214.5,141.555,263.33,263.33,72.323,182.353,55.633,615.054,55.633,816.57S2537.943,2022.181,2465.62,2203.916Z" transform="translate(0.005 -2.238)" fill="#fff"/></svg>