<?xml version="1.0" encoding="utf-8"?>
<!-- Generator: Adobe Illustrator 25.0.0, SVG Export Plug-In . SVG Version: 6.00 Build 0)  -->
<svg version="1.1" id="regular" xmlns="http://www.w3.org/2000/svg" xmlns:xlink="http://www.w3.org/1999/xlink" x="0px" y="0px"
	 viewBox="0 0 512 512" style="enable-background:new 0 0 512 512;" xml:space="preserve">
<style type="text/css">
	.st0{fill:#FFFFFF;stroke:#FD3018;stroke-width:20;stroke-miterlimit:10;}
</style>
<path class="st0" d="M458.5,277.8L266.7,472.2c-2.8,2.9-6.7,4.5-10.7,4.5c-4,0-7.9-1.6-10.7-4.5L53.5,277.7
	c-49.8-50.4-49.8-132.6,0-183c24.2-24.5,56.4-38,90.6-38c34.2,0,66.4,13.5,90.6,38l21.3,21.6l21.3-21.6c24.2-24.5,56.4-38,90.6-38
	c34.3,0,66.4,13.5,90.6,38C508.3,145.2,508.3,227.3,458.5,277.8z"/>
</svg>
