<svg xmlns="http://www.w3.org/2000/svg" xmlns:xlink="http://www.w3.org/1999/xlink" width="77.714" height="107.224" viewBox="0 0 77.714 107.224"><defs><linearGradient id="a" y1="0.5" x2="1" y2="0.5" gradientUnits="objectBoundingBox"><stop offset="0" stop-color="#d2a84e"/><stop offset="0.5" stop-color="#fff9ae"/><stop offset="1" stop-color="#d2a84e"/></linearGradient><radialGradient id="b" cx="0.5" cy="0.499" r="1.471" gradientTransform="translate(0.344) scale(0.313 1)" gradientUnits="objectBoundingBox"><stop offset="0" stop-color="#fff9ae"/><stop offset="1" stop-color="#d2a84e"/></radialGradient><radialGradient id="c" cx="0.5" cy="0.5" r="1.235" gradientTransform="translate(0.315) scale(0.37 1)" xlink:href="#b"/></defs><rect width="77.714" height="107.224" rx="9.01" fill="#193735"/><path d="M11.179,142.68H8.68v-1.44h6.575v1.44H12.776v6.372h-1.6Z" transform="translate(-2.973 -48.37)" fill="#d2a84e"/><path d="M23.552,141a4.09,4.09,0,1,1-2.912,1.165A4.05,4.05,0,0,1,23.552,141Zm0,1.479a2.571,2.571,0,1,0,2.505,2.571,2.453,2.453,0,0,0-2.492-2.558Z" transform="translate(-6.647 -48.288)" fill="#d2a84e"/><path d="M34.09,141.24h2.939a2.54,2.54,0,1,1,0,5.05H35.714v2.762H34.09Zm2.939,3.656a1.124,1.124,0,1,0,0-2.249H35.714V144.9Z" transform="translate(-11.675 -48.37)" fill="#d2a84e"/><path d="M49.29,141.24h5.26v1.44H50.888v1.585h2.683v1.368H50.888V147.6h3.8v1.447h-5.4Z" transform="translate(-16.88 -48.37)" fill="#d2a84e"/><path d="M59.875,146.562a2.275,2.275,0,0,0,1.913,1.131c.7,0,1.118-.329,1.118-.861s-.25-.658-1-.973l-.835-.375c-1.2-.533-1.9-1.21-1.9-2.249a2.344,2.344,0,0,1,2.6-2.216,2.8,2.8,0,0,1,2.578,1.479l-1.085.842a1.762,1.762,0,0,0-1.493-.9c-.559,0-.973.27-.973.756s.25.6.914.9l.888.395c1.315.579,1.927,1.23,1.927,2.282a2.442,2.442,0,0,1-2.735,2.341,3.406,3.406,0,0,1-3.018-1.723Z" transform="translate(-20.127 -48.293)" fill="#d2a84e"/><path d="M71.042,142.68H68.55v-1.44h6.575v1.44H72.64v6.372h-1.6Z" transform="translate(-23.476 -48.37)" fill="#d2a84e"/><path d="M83.062,147.95H79.873l-.434,1.019H77.71L81.188,141h.533l3.478,7.956H83.5ZM81.465,144l-1.045,2.63H82.5Z" transform="translate(-26.613 -48.288)" fill="#d2a84e"/><path d="M90.769,142.68h-2.5v-1.44h6.575v1.44H92.366v6.372h-1.6Z" transform="translate(-30.229 -48.37)" fill="#d2a84e"/><path d="M99.92,141.24h5.26v1.44h-3.656v1.585h2.689v1.368h-2.689V147.6h3.8v1.447h-5.4Z" transform="translate(-34.219 -48.37)" fill="#d2a84e"/><path d="M45.983,72.9c-10.455,0-17.753-1.887-21.758-5.615l-.316-.289v-36.6L43.735,16.512l11.52,8.061V10.18L69.589,20.214V60.928H50.981V72.764l-.94.039Q47.943,72.9,45.983,72.9Zm-20.1-6.779c4.083,3.524,11.836,5.129,23.125,4.754V60.928H36.028V39.762L50.981,28.907V58.956H67.616V21.24L57.227,13.967V25.954l6.339,4.438V54.557H55.255V26.987l-11.52-8.068L25.883,31.412ZM38,58.956H49.008V32.779L38,40.768Zm19.226-6.372H61.62V31.425l-4.366-3.058Z" transform="translate(-8.188 -3.486)" fill="url(#a)"/><path d="M73.281,94.032c0,6.2-11.744,11.3-26.768,11.875-.934.039-1.881.059-2.847.059s-1.907,0-2.847-.059C25.8,105.335,14.05,100.232,14.05,94.032c0-2.446,1.828-4.715,4.951-6.575-1.835,1.361-2.867,2.893-2.867,4.511,0,2.525,2.492,4.826,6.621,6.575,4.471,1.913,10.856,3.215,18.062,3.485.934.039,1.881.053,2.841.053h0c.96,0,1.9,0,2.834-.053,7.233-.27,13.6-1.572,18.062-3.492,4.129-1.775,6.628-4.077,6.628-6.575,0-1.618-1.039-3.15-2.867-4.511C71.459,89.317,73.281,91.586,73.281,94.032Z" transform="translate(-4.812 -29.949)" fill="url(#b)"/><path d="M75.943,99.651c0,8.706-13.946,15.866-31.785,16.668-1.111.053-2.242.079-3.386.079s-2.268,0-3.38-.079C19.553,115.518,5.6,108.357,5.6,99.651c0-3.432,2.163-6.615,5.878-9.271C9.3,92.287,8.072,94.437,8.072,96.712c0,3.538,2.965,6.773,7.89,9.271,5.287,2.689,12.868,4.53,21.462,4.892,1.111.053,2.229.079,3.373.079h0q1.71,0,3.373-.079c8.548-.381,16.142-2.2,21.449-4.9,4.905-2.492,7.89-5.727,7.89-9.265,0-2.275-1.23-4.425-3.406-6.332C73.78,93.036,75.943,96.219,75.943,99.651Z" transform="translate(-1.918 -30.952)" fill="url(#c)"/></svg>