<svg xmlns="http://www.w3.org/2000/svg" width="20.283" height="20.283" viewBox="0 0 20.283 20.283"><g transform="translate(14.298 11.94)"><path d="M366.38,304.419l-2.521-2.521a1.826,1.826,0,0,0-2.521,0l-.42.42,5.042,5.042.42-.42A1.781,1.781,0,0,0,366.38,304.419Z" transform="translate(-360.917 -301.393)" fill="#153b99"/></g><g transform="translate(0 1.8)"><g transform="translate(0)"><path d="M13.434,57.325a1.337,1.337,0,0,1-1.772-.091L6.678,52.246a1.338,1.338,0,0,1-.091-1.772L1.556,45.443a6.416,6.416,0,0,0,.309,8.713l7.888,7.891a6.379,6.379,0,0,0,8.713.309Z" transform="translate(0 -45.443)" fill="#153b99"/></g></g><g transform="translate(2.362 0)"><g transform="translate(0 0)"><path d="M65.075,3.026,62.554.5a1.826,1.826,0,0,0-2.521,0l-.42.42,5.042,5.042.42-.42A1.781,1.781,0,0,0,65.075,3.026Z" transform="translate(-59.612 0)" fill="#153b99"/></g></g></svg>