<svg xmlns="http://www.w3.org/2000/svg" width="45.147" height="45.147" viewBox="0 0 45.147 45.147"><path d="M30.5,16.347l12.632-3.158A22.626,22.626,0,0,1,22.514,45.147c-.568,0-1.138-.021-1.706-.064l9.227-15.7a9.473,9.473,0,0,0,1.657-2.391,10.254,10.254,0,0,0-.081-8.932,9.7,9.7,0,0,0-1.11-1.712ZM24.406,32.478l-3.99,12.57A22.625,22.625,0,0,1,3.834,9.931l9.093,15.758c.339,1.014,2.105,4.855,5.769,6.259a10.279,10.279,0,0,0,5.709.53ZM22.523,14.334a8.509,8.509,0,0,0-8.053,6.607A8.279,8.279,0,0,0,25.7,30.269a8.444,8.444,0,0,0,5.062-6.454,8.517,8.517,0,0,0-4.693-8.708,8.3,8.3,0,0,0-3.548-.773ZM13.255,18.74,4.25,9.336a22.637,22.637,0,0,1,38.586,3.221H23.623A10.417,10.417,0,0,0,15.6,15.29a10.055,10.055,0,0,0-2.346,3.45Z" fill="#4b4b4b"/></svg>