<svg xmlns="http://www.w3.org/2000/svg" width="20.885" height="16.969" viewBox="0 0 20.885 16.969"><path d="M20.885,50.009a8.927,8.927,0,0,1-2.467.676A4.258,4.258,0,0,0,20.3,48.318a8.557,8.557,0,0,1-2.715,1.036,4.281,4.281,0,0,0-7.406,2.928,4.409,4.409,0,0,0,.1.976,12.119,12.119,0,0,1-8.825-4.479A4.283,4.283,0,0,0,2.77,54.5a4.228,4.228,0,0,1-1.934-.527v.047a4.3,4.3,0,0,0,3.43,4.207,4.273,4.273,0,0,1-1.123.141,3.786,3.786,0,0,1-.811-.073,4.322,4.322,0,0,0,4,2.983,8.6,8.6,0,0,1-5.309,1.826A8.02,8.02,0,0,1,0,63.048a12.054,12.054,0,0,0,6.568,1.921A12.1,12.1,0,0,0,18.755,52.785c0-.189-.007-.372-.016-.553A8.542,8.542,0,0,0,20.885,50.009Z" transform="translate(0 -48)" fill="#fff"/></svg>