<svg xmlns="http://www.w3.org/2000/svg" width="16.953" height="16.953" viewBox="0 0 16.953 16.953"><g transform="translate(11.95 9.979)"><path d="M365.483,303.922l-2.107-2.107a1.527,1.527,0,0,0-2.107,0l-.351.351,4.214,4.214.351-.351A1.489,1.489,0,0,0,365.483,303.922Z" transform="translate(-360.917 -301.393)" fill="#fff"/></g><g transform="translate(0 1.505)"><g transform="translate(0)"><path d="M11.229,55.374A1.117,1.117,0,0,1,9.748,55.3L5.582,51.129a1.118,1.118,0,0,1-.076-1.481l-4.2-4.2a5.363,5.363,0,0,0,.258,7.282l6.592,6.6a5.332,5.332,0,0,0,7.282.258Z" transform="translate(0 -45.443)" fill="#fff"/></g></g><g transform="translate(1.974 0)"><g transform="translate(0 0)"><path d="M64.178,2.529,62.071.422a1.527,1.527,0,0,0-2.107,0l-.351.351,4.214,4.214.351-.351A1.489,1.489,0,0,0,64.178,2.529Z" transform="translate(-59.612 0)" fill="#fff"/></g></g></svg>